<svg width="84" height="84" viewBox="0 0 84 84" fill="none" xmlns="http://www.w3.org/2000/svg">
<rect width="84" height="84" rx="8" fill="#A3A073" fill-opacity="0.22"/>
<path d="M34.9167 13.6667C35.8469 13.6667 36.768 13.8499 37.6274 14.2059C38.4868 14.5618 39.2676 15.0836 39.9254 15.7414C40.5831 16.3991 41.1049 17.18 41.4608 18.0393C41.8168 18.8987 42 19.8198 42 20.75V63.25C41.9962 65.0177 41.3316 66.72 40.1368 68.0226C38.942 69.3253 37.3033 70.1342 35.5426 70.2904C33.7819 70.4466 32.0264 69.9388 30.6209 68.8668C29.2155 67.7948 28.2616 66.236 27.9467 64.4967C26.7598 64.7609 25.525 64.7151 24.3609 64.3638C23.1969 64.0125 22.1429 63.3675 21.3003 62.4908C20.4578 61.6141 19.8552 60.5353 19.5504 59.3582C19.2456 58.1812 19.2489 56.9454 19.56 55.77C17.9304 55.2466 16.4968 54.2433 15.4468 52.8916C14.3968 51.5399 13.7794 49.9027 13.6753 48.1942C13.5712 46.4858 13.9853 44.7857 14.8634 43.3165C15.7415 41.8473 17.0427 40.6775 18.5967 39.96C17.6727 39.0472 17.0175 37.898 16.7027 36.638C16.3879 35.3779 16.4256 34.0555 16.8116 32.8155C17.1977 31.5754 17.9173 30.4653 18.8917 29.6066C19.8661 28.748 21.0579 28.1737 22.3367 27.9467C22.1304 27.0191 22.1128 26.0595 22.2851 25.125C22.4573 24.1905 22.8158 23.3002 23.3393 22.5071C23.8627 21.714 24.5404 21.0343 25.3319 20.5086C26.1235 19.9828 27.0127 19.6217 27.9467 19.4467C28.251 17.8211 29.1145 16.3533 30.3875 15.2976C31.6606 14.2419 33.2629 13.6649 34.9167 13.6667Z" stroke="#A3A073" stroke-width="3.66667" stroke-linecap="round" stroke-linejoin="round"/>
<path d="M49.0833 13.6667C47.2047 13.6667 45.403 14.413 44.0747 15.7414C42.7463 17.0697 42 18.8714 42 20.75V63.25C42.0038 65.0177 42.6684 66.72 43.8632 68.0226C45.058 69.3253 46.6967 70.1342 48.4574 70.2904C50.2181 70.4466 51.9736 69.9388 53.3791 68.8668C54.7846 67.7948 55.7384 66.236 56.0533 64.4967C57.2402 64.7609 58.4751 64.7151 59.6391 64.3638C60.8031 64.0125 61.8572 63.3675 62.6997 62.4908C63.5422 61.6141 64.1449 60.5353 64.4497 59.3582C64.7545 58.1812 64.7511 56.9454 64.44 55.77C66.0696 55.2466 67.5032 54.2433 68.5532 52.8916C69.6032 51.5399 70.2206 49.9027 70.3247 48.1942C70.4288 46.4858 70.0147 44.7857 69.1366 43.3165C68.2585 41.8473 66.9573 40.6775 65.4033 39.96C66.3273 39.0472 66.9825 37.898 67.2973 36.638C67.6121 35.3779 67.5744 34.0555 67.1884 32.8155C66.8023 31.5754 66.0827 30.4653 65.1083 29.6066C64.1339 28.748 62.9421 28.1737 61.6633 27.9467C61.8696 27.0191 61.8872 26.0595 61.7149 25.125C61.5427 24.1905 61.1842 23.3002 60.6608 22.5071C60.1373 21.714 59.4597 21.0343 58.6681 20.5086C57.8766 19.9828 56.9873 19.6217 56.0533 19.4467C55.749 17.8211 54.8855 16.3533 53.6125 15.2976C52.3394 14.2419 50.7371 13.6649 49.0833 13.6667Z" stroke="#A3A073" stroke-width="3.66667" stroke-linecap="round" stroke-linejoin="round"/>
</svg>
