<svg width="52" height="52" viewBox="0 0 52 52" fill="none" xmlns="http://www.w3.org/2000/svg">
<rect width="52" height="52" rx="10" fill="#A3A073" fill-opacity="0.13"/>
<mask id="mask0_48_878" style="mask-type:alpha" maskUnits="userSpaceOnUse" x="6" y="6" width="40" height="40">
<rect x="6" y="6" width="40" height="40" fill="#D9D9D9"/>
</mask>
<g mask="url(#mask0_48_878)">
<path d="M25.9999 42.6666C23.7221 42.6666 21.5694 42.2288 19.5416 41.3533C17.5138 40.4788 15.7433 39.2844 14.2299 37.7699C12.7155 36.2566 11.521 34.486 10.6466 32.4583C9.77103 30.4305 9.33325 28.2777 9.33325 25.9999C9.33325 23.6944 9.77103 21.5349 10.6466 19.5216C11.521 17.5071 12.7155 15.7433 14.2299 14.2299C15.7433 12.7155 17.5138 11.5205 19.5416 10.6449C21.5694 9.77047 23.7221 9.33325 25.9999 9.33325C28.3055 9.33325 30.4649 9.77047 32.4783 10.6449C34.4927 11.5205 36.2566 12.7155 37.7699 14.2299C39.2844 15.7433 40.4788 17.5071 41.3533 19.5216C42.2288 21.5349 42.6666 23.6944 42.6666 25.9999C42.6666 28.2777 42.2288 30.4305 41.3533 32.4583C40.4788 34.486 39.2844 36.2566 37.7699 37.7699C36.2566 39.2844 34.4927 40.4788 32.4783 41.3533C30.4649 42.2288 28.3055 42.6666 25.9999 42.6666ZM25.9999 39.2499C26.7221 38.2499 27.3471 37.2083 27.8749 36.1249C28.4027 35.0416 28.8333 33.8888 29.1666 32.6666H22.8333C23.1666 33.8888 23.5971 35.0416 24.1249 36.1249C24.6527 37.2083 25.2777 38.2499 25.9999 39.2499ZM21.6666 38.5833C21.1666 37.6666 20.7294 36.7149 20.3549 35.7283C19.9794 34.7427 19.6666 33.7222 19.4166 32.6666H14.4999C15.3055 34.0555 16.3121 35.2638 17.5199 36.2916C18.7288 37.3194 20.111 38.0833 21.6666 38.5833ZM30.3333 38.5833C31.8888 38.0833 33.2705 37.3194 34.4783 36.2916C35.6872 35.2638 36.6944 34.0555 37.4999 32.6666H32.5833C32.3333 33.7222 32.021 34.7427 31.6466 35.7283C31.271 36.7149 30.8333 37.6666 30.3333 38.5833ZM13.0833 29.3333H18.7499C18.6666 28.7777 18.6038 28.2288 18.5616 27.6866C18.5205 27.1455 18.4999 26.5833 18.4999 25.9999C18.4999 25.4166 18.5205 24.8544 18.5616 24.3133C18.6038 23.771 18.6666 23.2221 18.7499 22.6666H13.0833C12.9444 23.2221 12.8399 23.771 12.7699 24.3133C12.701 24.8544 12.6666 25.4166 12.6666 25.9999C12.6666 26.5833 12.701 27.1455 12.7699 27.6866C12.8399 28.2288 12.9444 28.7777 13.0833 29.3333ZM22.0833 29.3333H29.9166C29.9999 28.7777 30.0627 28.2288 30.1049 27.6866C30.146 27.1455 30.1666 26.5833 30.1666 25.9999C30.1666 25.4166 30.146 24.8544 30.1049 24.3133C30.0627 23.771 29.9999 23.2221 29.9166 22.6666H22.0833C21.9999 23.2221 21.9377 23.771 21.8966 24.3133C21.8544 24.8544 21.8333 25.4166 21.8333 25.9999C21.8333 26.5833 21.8544 27.1455 21.8966 27.6866C21.9377 28.2288 21.9999 28.7777 22.0833 29.3333ZM33.2499 29.3333H38.9166C39.0555 28.7777 39.1599 28.2288 39.2299 27.6866C39.2988 27.1455 39.3333 26.5833 39.3333 25.9999C39.3333 25.4166 39.2988 24.8544 39.2299 24.3133C39.1599 23.771 39.0555 23.2221 38.9166 22.6666H33.2499C33.3333 23.2221 33.3955 23.771 33.4366 24.3133C33.4788 24.8544 33.4999 25.4166 33.4999 25.9999C33.4999 26.5833 33.4788 27.1455 33.4366 27.6866C33.3955 28.2288 33.3333 28.7777 33.2499 29.3333ZM32.5833 19.3333H37.4999C36.6944 17.9444 35.6872 16.736 34.4783 15.7083C33.2705 14.6805 31.8888 13.9166 30.3333 13.4166C30.8333 14.3333 31.271 15.2844 31.6466 16.2699C32.021 17.2566 32.3333 18.2777 32.5833 19.3333ZM22.8333 19.3333H29.1666C28.8333 18.111 28.4027 16.9583 27.8749 15.8749C27.3471 14.7916 26.7221 13.7499 25.9999 12.7499C25.2777 13.7499 24.6527 14.7916 24.1249 15.8749C23.5971 16.9583 23.1666 18.111 22.8333 19.3333ZM14.4999 19.3333H19.4166C19.6666 18.2777 19.9794 17.2566 20.3549 16.2699C20.7294 15.2844 21.1666 14.3333 21.6666 13.4166C20.111 13.9166 18.7288 14.6805 17.5199 15.7083C16.3121 16.736 15.3055 17.9444 14.4999 19.3333Z" fill="#A3A073"/>
</g>
</svg>
