<svg width="189" height="177" viewBox="0 0 189 177" fill="none" xmlns="http://www.w3.org/2000/svg">
<path d="M46.2514 21.2057L46.2514 21.2058L46.2512 21.2057L46.2514 21.2057ZM46.2514 21.2057L46.2512 21.2057M46.2514 21.2057L46.2512 21.2057M46.2514 21.2057L46.2518 21.2051L46.2518 21.2051L46.2521 21.2047L46.2515 21.0342M46.2512 21.2057L46.251 21.2054L46.251 21.2054L46.1646 21.1254L46.2484 21.2052L46.2484 21.2052L46.2494 21.2062L46.2494 21.2062L46.2505 21.2072M46.2512 21.2057L46.3786 21.3237C46.3767 21.3237 46.3747 21.3237 46.3728 21.3237L46.2526 21.2092M46.2505 21.2072L46.1872 21.3047L46.2505 21.2072M46.2505 21.2072L46.2505 21.2072M46.2505 21.2072L46.2514 21.2058L46.2505 21.2072M46.2505 21.2072L46.2521 21.2087M46.2521 21.2087L46.2525 21.3241L46.2526 21.2092M46.2521 21.2087L46.2526 21.2092M46.2521 21.2087L46.2526 21.2092M188.289 35.9077C188.309 38.0257 188.331 40.2641 187.929 42.1193L153.792 34.3019C153.85 34.4019 153.937 34.4519 154.052 34.4519L188.062 34.4484C188.12 34.4484 188.174 34.4707 188.215 34.5105C188.256 34.5502 188.279 34.6043 188.28 34.6611C188.281 35.0692 188.285 35.486 188.289 35.9077ZM153.361 34.5555C153.508 34.8065 153.758 34.9519 154.052 34.9519L187.781 34.9484C187.783 35.2736 187.786 35.6016 187.789 35.9308C187.809 38.0498 187.829 40.2185 187.44 42.0135L187.44 42.014C186.096 48.2525 180.883 53.0807 174.717 54.5302C173.329 54.8556 171.048 55.0295 167.838 55.0365C159.491 55.0526 151.148 55.0516 142.81 55.0334C140.756 48.6711 137.728 42.7939 133.727 37.4035C132.572 35.8464 131.509 34.5718 130.538 33.5854C117.674 20.4944 98.8787 15.271 81.0961 20.4992L81.0961 20.4992C80.2917 20.7359 79.4567 20.8101 78.6808 20.8102C68.1537 20.783 57.6443 20.7867 47.1526 20.8211C78.8024 -11.5941 130.567 -3.92508 153.361 34.5555Z" stroke="#A3A073"/>
<path d="M76.7213 119.487H76.7212C76.7194 119.581 76.6947 119.672 76.6494 119.754C76.6041 119.836 76.5396 119.905 76.4615 119.956C76.3834 120.007 76.2941 120.038 76.2013 120.047C76.1084 120.056 76.0149 120.042 75.9287 120.007L75.9202 120.003L75.9203 120.003C56.5848 111.629 45.0519 93.0862 44.36 72.258L26.8274 72.2479C27.3692 102.585 46.7295 130.343 76.2118 139.33L76.2174 139.332C76.3452 139.373 76.483 139.451 76.5854 139.59C76.688 139.729 76.7213 139.885 76.7213 140.02L76.7248 176.482C77.0474 176.484 77.364 176.487 77.6755 176.491C80.5132 176.521 82.9304 176.547 85.5958 175.056C88.9047 173.202 91.3457 169.809 92.9763 165.91C94.6049 162.017 95.4023 157.672 95.4596 153.995C95.516 150.23 95.5336 146.475 95.5125 142.727L95.5125 142.724C95.5124 142.554 95.5793 142.39 95.6983 142.269C95.8174 142.147 95.9792 142.077 96.1491 142.073L96.1522 142.073C134.927 141.414 163.976 107.962 163.308 70.0575L110.241 70.061C110.239 70.2822 110.236 70.505 110.233 70.7287C110.208 72.6553 110.183 74.6478 110.42 76.2888L110.42 76.2894C111.639 84.7838 118.414 90.3293 126.933 90.343C131.749 90.3501 136.546 90.3465 141.324 90.3325C141.325 90.3325 141.326 90.3325 141.327 90.3325L141.329 90.8324C141.358 90.8318 141.387 90.8385 141.413 90.852C141.439 90.8655 141.461 90.8854 141.477 90.9098C141.494 90.9343 141.504 90.9625 141.507 90.992C141.51 91.0215 141.506 91.0514 141.494 91.0789L76.7213 119.487ZM76.7213 119.487V119.477V56.3038C76.7213 56.1701 76.6875 55.978 76.5322 55.8231C76.3771 55.6683 76.1852 55.6347 76.0519 55.6347H76.0517C59.9387 55.6418 43.8199 55.6324 27.6951 55.6066H27.695C22.9877 55.5996 18.4693 54.6947 14.136 52.8914L13.9439 53.353M76.7213 119.487L0.501164 35.3351M163.801 69.7265C163.8 69.6813 163.782 69.6384 163.75 69.6068C163.717 69.5752 163.674 69.5575 163.629 69.5575L109.826 69.561C109.772 69.561 109.745 69.588 109.745 69.642C109.743 69.9922 109.738 70.3497 109.733 70.7112C109.708 72.636 109.682 74.6766 109.925 76.3604L163.801 69.7265ZM163.801 69.7265C164.645 108.012 135.348 141.907 96.1607 142.573C96.1211 142.574 96.0834 142.59 96.0557 142.618C96.028 142.647 96.0125 142.685 96.0125 142.724C96.0337 146.475 96.016 150.235 95.9596 154.002C95.8431 161.474 92.724 171.637 85.8399 175.492C83.0514 177.052 80.4973 177.023 77.6648 176.991C77.2752 176.987 76.8804 176.982 76.4789 176.982C76.4115 176.982 76.3469 176.955 76.2992 176.906C76.2516 176.858 76.2248 176.793 76.2248 176.725L76.2213 140.02C76.2213 139.912 76.1696 139.841 76.0661 139.809C46.2399 130.717 26.7134 102.565 26.3217 71.8815M163.801 69.7265L0.00993865 34.9513M13.9439 53.353C6.39647 50.2121 -0.29351 43.7683 0.00993865 34.9513M13.9439 53.353C18.338 55.1817 22.9215 56.0995 27.6943 56.1066C43.8194 56.1324 59.9386 56.1418 76.0519 56.1347C76.1649 56.1347 76.2213 56.1911 76.2213 56.3038V119.043C76.2534 119.057 76.2856 119.071 76.3177 119.085L76.2213 119.308V119.477C76.2211 119.489 76.2179 119.501 76.2121 119.512C76.2062 119.522 76.1979 119.531 76.1878 119.538C76.1778 119.544 76.1662 119.548 76.1542 119.549C76.1422 119.551 76.1301 119.549 76.119 119.544C76.0677 119.522 76.0164 119.5 75.9652 119.477H75.7213V119.37C56.7171 110.954 45.4209 92.5551 44.8497 71.9131C44.8474 71.8099 44.7944 71.7582 44.6909 71.7582L26.4523 71.7477M13.9439 53.353L14.136 52.8914C6.78916 49.834 0.402826 43.6685 0.501164 35.3351M0.00993865 34.9513C0.0108568 34.9202 0.0239 34.8906 0.0462996 34.8689M0.00993865 34.9513L0.0462996 34.8689M26.4523 71.7477C26.4177 71.7477 26.3844 71.7617 26.36 71.7868C26.3355 71.8119 26.3217 71.846 26.3217 71.8815M26.4523 71.7477L26.4522 71.8768L26.4522 71.8798M26.4523 71.7477V71.8769V71.8798H26.4522M26.3217 71.8815H26.4522M26.3217 71.8815L26.4522 71.8798M26.4522 71.8798V71.8815M26.4523 72.2477C26.5543 72.2477 26.6495 72.206 26.7178 72.136C26.7857 72.0664 26.8217 71.9746 26.8217 71.8815H26.4569H26.4523V72.2477ZM26.4523 72.2477H26.452L26.4522 71.8815M26.4523 72.2477L26.4522 71.8815M0.501164 35.3351H6.51522H6.71476H6.91431H7.11385H7.3134H7.51295H7.71249H7.91204H8.11158H8.31113H8.51068H8.71022H8.90977H9.10932H9.30886H9.50841H9.70796H9.90751H10.1071H10.3066H10.5062H10.7057H10.9053H11.1048H11.3043H11.5039H11.7035H11.903H12.1026H12.3021H12.5017H12.7012H12.9008H13.1003H13.2999H13.4994H13.699H13.8985H14.0981H14.2976H14.4972H14.6967H14.8963H15.0958H15.2954H15.4949H15.6945H15.894H16.0936H16.2932H16.4927H16.6923H16.8918H17.0914H17.2909H17.4905H17.6901H17.8896H18.0892H18.2887H18.4883H18.6878H18.8874H19.087H19.2865H19.4861H19.6856H19.8852H20.0847H20.2843H20.4839H20.6834H20.883H21.0825H21.2821H21.4817H21.6812H21.8808H22.0803H22.2799H22.4795H22.679H22.8786H23.0782H23.2777H23.4773H23.6768H23.8764H24.076H24.2755H24.4751H24.6747H24.8742H25.0738H25.2734H25.4729H25.6725H25.8721H26.0716H26.2712H26.4707H26.6703H26.8699H27.0694H27.269H27.4686H27.6681H27.8677H28.0673H28.2669H28.4664H28.666H28.8656H29.0651H29.2647H29.4643H29.6638H29.8634H30.063H30.2625H30.4621H30.6617H30.8613H31.0608H31.2604H31.46H31.6595H31.8591H32.0587H32.2583H32.4578H32.6574H32.857H33.0565H33.2561H33.4557H33.6553H33.8548H34.0544H34.254H34.4536H34.6531H34.8527H35.0523H35.2519H35.4514H35.651H35.8506H36.0502H36.2497H36.4493H36.6489H36.8485H37.048H37.2476H37.4472H37.6468H37.8464H38.0459H38.2455H38.4451H38.6447H38.8443H39.0438H39.2434H39.443H39.6426H39.8422H40.0417H40.2413H40.4409H40.6405H40.8401H41.0396H41.2392H41.4388H41.6384H41.838H42.0376H42.2371H42.4367H42.6363H42.8359H43.0355H43.2351H43.4346H43.6342H43.8338H44.0334H44.233H44.4326H44.6321H44.8317H45.0313H45.2309H45.4305H45.6301H45.8297H46.0293H46.2288H46.4284H46.628H46.8276H47.0272H47.2268H47.4264H47.626H47.8255H48.0251H48.2247H48.4243H48.6239H48.8235H49.0231H49.2227H49.4223H49.6219H49.8214H50.021H50.2206H50.4202H50.6198H50.8194H51.019H51.2186H51.4182H51.6178H51.8174H52.017H52.2166H52.4162H52.6157H52.8153H53.0149H53.2145H53.4141H53.6137H53.8133H54.0129H54.2125H54.4121H54.6117H54.8113H55.0109H55.2105H55.4101H55.6097H55.8093H56.0089H56.2085H56.4081H56.6077H56.8073H57.0069H57.2065H57.4061H57.6057H57.8053H58.0049H58.2045H58.4041H58.6037H58.8033H59.0029H59.2025H59.4021H59.6017H59.8013H60.0009H60.2005H60.4001H60.5997H60.7993H60.9989H61.1985H61.3981H61.5977H61.7973H61.9969H62.1965H62.3961H62.5957H62.7953H62.9949H63.1945H63.3941H63.5938H63.7934H63.993H64.1926H64.3922H64.5918H64.7914H64.991H65.1906H65.3902H65.5898H65.7894H65.989H66.1887H66.3883H66.5879H66.7875H66.9871H67.1867H67.3863H67.5859H67.7855H67.9851H68.1848H68.3844H68.584H68.7836H68.9832H69.1828H69.3824H69.582H69.7816H69.9813H70.1809H70.3805H70.5801H70.7797H70.9793H71.1789H71.3786H71.5782H71.7778H71.9774H72.177H72.3766H72.5762H72.7759H72.9755H73.1751H73.3747H73.5743H73.7739H73.9736H74.1732H74.3728H74.5724H74.772H74.9717H75.1713H75.3709H75.5705H75.7701H75.9697H76.1694H76.369H76.5686H76.7682H76.9678H77.1675H77.3671H77.5667H77.7663H77.966H78.1656H78.3652H78.5648H78.7644H78.9641H79.1637H79.3633H79.5629H79.7626H79.9622H80.1618H80.3614H80.5611H80.7607H80.9603H81.1599H81.3596H81.5592H81.7588H81.9584H82.1581H82.3577H82.5573H82.7569H82.9566H83.1562H83.3558H83.5554H83.7551H83.9547H84.1543H84.354H84.5536H84.7532H84.9528H85.1525H85.3521H85.5517H85.7514H85.951H86.1506H86.3503H86.5499H86.7495H86.9491H87.1488H87.3484H87.548H87.7477H87.9473H88.1469H88.3466H88.5462H88.7458H88.9455H89.1451H89.3447H89.5444H89.744H89.9436H90.1433H90.3429H90.5425H90.7422H90.9418H91.1414H91.3411H91.5407H91.7404H91.94H92.1396H92.3393H92.5389H92.7385H92.9382H93.1378H93.3375H93.5371H93.7367H93.9364H94.136H94.3356H94.5353H94.7349H94.9346H95.1342H95.3338H95.5335H95.7331H95.9328H96.1324H96.3321H96.5317H96.7313H96.931H97.1306H97.3303H97.5299H97.7295H97.9292H98.1288H98.3285H98.5281H98.7278H98.9274H99.1271H99.3267H99.5263H99.726H99.9256H100.125H100.325H100.525H100.724H100.924H101.124H101.323H101.523H101.722H101.922H102.122H102.321C103.484 35.3351 104.604 35.6711 105.688 36.3594L105.688 36.3597C113.567 41.3467 121.577 47.6798 126.521 55.6347L96.2454 55.6312C96.0886 55.6312 95.8791 55.6706 95.7122 55.8372C95.5452 56.0039 95.5054 56.2135 95.5054 56.3707V123.189C95.5054 123.283 95.5241 123.377 95.5606 123.464C95.5971 123.551 95.6507 123.631 95.7187 123.697C95.7867 123.764 95.8676 123.817 95.9568 123.852C96.0459 123.886 96.1413 123.903 96.2372 123.9C96.2373 123.9 96.2375 123.9 96.2376 123.9L96.2207 123.4L0.501164 35.3351ZM0.0462996 34.8689C0.0686992 34.8472 0.0986905 34.8351 0.129906 34.8351L0.0462996 34.8689ZM75.7214 119.467C75.722 119.436 75.7261 119.405 75.7333 119.375C75.8065 119.408 75.8797 119.44 75.953 119.472L75.7214 119.467ZM76.3092 119.082L76.2213 119.295V119.056C76.2514 119.062 76.2808 119.07 76.3092 119.082ZM110.245 69.642C110.245 69.6433 110.245 69.6446 110.245 69.646V69.642Z" stroke="#A3A073"/>
</svg>
