<svg width="52" height="52" viewBox="0 0 52 52" fill="none" xmlns="http://www.w3.org/2000/svg">
<rect width="52" height="52" rx="10" fill="#F3F3ED"/>
<path d="M35.3666 23.9166C34.6499 23.9166 34.0833 23.3333 34.0833 22.6333C34.0833 22.0166 33.4666 20.7333 32.4333 19.6166C31.4166 18.5333 30.2999 17.8999 29.3666 17.8999C28.6499 17.8999 28.0833 17.3166 28.0833 16.6166C28.0833 15.9166 28.6666 15.3333 29.3666 15.3333C31.0333 15.3333 32.7833 16.2333 34.3166 17.8499C35.7499 19.3666 36.6666 21.2499 36.6666 22.6166C36.6666 23.3333 36.0833 23.9166 35.3666 23.9166Z" fill="#A3A073"/>
<path d="M41.3834 23.9166C40.6668 23.9166 40.1001 23.3333 40.1001 22.6333C40.1001 16.7166 35.2834 11.9166 29.3834 11.9166C28.6668 11.9166 28.1001 11.3333 28.1001 10.6333C28.1001 9.93325 28.6668 9.33325 29.3668 9.33325C36.7001 9.33325 42.6668 15.2999 42.6668 22.6333C42.6668 23.3333 42.0834 23.9166 41.3834 23.9166Z" fill="#A3A073"/>
<path d="M24.4166 30.9166L21.3333 33.9999C20.6833 34.6499 19.6499 34.6499 18.9833 34.0166C18.7999 33.8333 18.6166 33.6666 18.4333 33.4833C16.7166 31.7499 15.1666 29.9333 13.7833 28.0333C12.4166 26.1333 11.3166 24.2333 10.5166 22.3499C9.73325 20.4499 9.33325 18.6333 9.33325 16.8999C9.33325 15.7666 9.53325 14.6833 9.93325 13.6833C10.3333 12.6666 10.9666 11.7333 11.8499 10.8999C12.9166 9.84992 14.0833 9.33325 15.3166 9.33325C15.7833 9.33325 16.2499 9.43325 16.6666 9.63325C17.0999 9.83325 17.4833 10.1333 17.7833 10.5666L21.6499 16.0166C21.9499 16.4333 22.1666 16.8166 22.3166 17.1833C22.4666 17.5333 22.5499 17.8833 22.5499 18.1999C22.5499 18.5999 22.4333 18.9999 22.1999 19.3833C21.9833 19.7666 21.6666 20.1666 21.2666 20.5666L19.9999 21.8833C19.8166 22.0666 19.7333 22.2833 19.7333 22.5499C19.7333 22.6833 19.7499 22.7999 19.7833 22.9333C19.8333 23.0666 19.8833 23.1666 19.9166 23.2666C20.2166 23.8166 20.7333 24.5333 21.4666 25.3999C22.2166 26.2666 23.0166 27.1499 23.8833 28.0333C24.0499 28.1999 24.2333 28.3666 24.3999 28.5333C25.0666 29.1833 25.0833 30.2499 24.4166 30.9166Z" fill="#A3A073"/>
<path d="M42.6167 36.5499C42.6167 37.0166 42.5333 37.4999 42.3667 37.9666C42.3167 38.0999 42.2667 38.2332 42.2 38.3666C41.9167 38.9666 41.55 39.5332 41.0667 40.0666C40.25 40.9666 39.35 41.6166 38.3333 42.0332C38.3167 42.0332 38.3 42.0499 38.2833 42.0499C37.3 42.4499 36.2333 42.6666 35.0833 42.6666C33.3833 42.6666 31.5667 42.2666 29.65 41.4499C27.7333 40.6332 25.8167 39.5332 23.9167 38.1499C23.2667 37.6666 22.6167 37.1832 22 36.6666L27.45 31.2166C27.9167 31.5666 28.3333 31.8332 28.6833 32.0166C28.7667 32.0499 28.8667 32.0999 28.9833 32.1499C29.1167 32.1999 29.25 32.2166 29.4 32.2166C29.6833 32.2166 29.9 32.1166 30.0833 31.9332L31.35 30.6832C31.7667 30.2666 32.1667 29.9499 32.55 29.7499C32.9333 29.5166 33.3167 29.3999 33.7333 29.3999C34.05 29.3999 34.3833 29.4666 34.75 29.6166C35.1167 29.7666 35.5 29.9832 35.9167 30.2666L41.4333 34.1832C41.8667 34.4832 42.1667 34.8332 42.35 35.2499C42.5167 35.6666 42.6167 36.0832 42.6167 36.5499Z" fill="#A3A073"/>
</svg>
