<svg width="52" height="52" viewBox="0 0 52 52" fill="none" xmlns="http://www.w3.org/2000/svg">
<rect width="52" height="52" rx="10" fill="#A3A073" fill-opacity="0.13"/>
<g clip-path="url(#clip0_48_854)">
<path fill-rule="evenodd" clip-rule="evenodd" d="M32.4578 18.7306C30.8058 17.155 28.6011 16.2966 26.3201 16.3319C22.1459 16.3319 18.6008 19.148 17.3368 22.94C16.6666 24.9271 16.6666 27.0789 17.3368 29.0661H17.3427C18.6125 32.8522 22.1518 35.6683 26.3259 35.6683C28.4806 35.6683 30.3305 35.1172 31.7641 34.1437V34.1398C33.4514 33.0228 34.6038 31.2649 34.9624 29.2778H26.3201V23.1165H41.4118C41.5999 24.1865 41.6881 25.28 41.6881 26.3676C41.6881 31.2341 39.9489 35.3484 36.9228 38.1351L36.926 38.1375C34.2745 40.5833 30.6353 42.0001 26.3201 42.0001C20.2704 42.0001 14.7382 38.5902 12.0221 33.1873C9.75273 28.6663 9.75274 23.3398 12.0221 18.8188C14.7382 13.41 20.2704 10.0001 26.3201 10.0001C30.2943 9.95307 34.1334 11.4464 37.0259 14.1625L32.4578 18.7306Z" fill="#A3A073"/>
</g>
<defs>
<clipPath id="clip0_48_854">
<rect width="32" height="32" fill="white" transform="translate(10 10)"/>
</clipPath>
</defs>
</svg>
