<svg width="1330" height="474" viewBox="0 0 1330 474" fill="none" xmlns="http://www.w3.org/2000/svg">
<rect x="-20" width="442" height="53" rx="8" fill="#A3A073" fill-opacity="0.37"/>
<rect x="874" y="88.4317" width="385.568" height="385.568" rx="8" fill="#A3A073" fill-opacity="0.13"/>
<rect x="944.432" y="18" width="385.568" height="385.568" rx="8" fill="#A3A073" fill-opacity="0.13"/>
<rect x="909.716" y="53.7158" width="384.568" height="384.568" rx="7.5" fill="white"/>
<rect x="909.716" y="53.7158" width="384.568" height="384.568" rx="7.5" stroke="#A3A073"/>
<path d="M1022.8 371.416C1074.22 404.477 1142.03 401.931 1190.93 364.767C1220.45 342.329 1240.86 309.648 1247.47 273.04C1254.13 236.123 1246.95 197.42 1226.59 165.817C1214.51 147.073 1199.18 131.817 1180.6 120.05C1132.57 89.6206 1069.7 89.8455 1021.75 121.268C1008.68 129.834 997.186 140.253 987.274 152.525C973.187 169.964 963.558 189.612 958.39 211.468C949.569 248.763 955.303 288.954 975.016 321.907C987.195 342.262 1003.12 358.765 1022.8 371.416Z" stroke="#D1D0B9" stroke-width="2"/>
<path d="M1124.77 107.541C1060.13 96.9659 998.072 132.597 973.11 192.541C964.445 213.346 961.146 236.373 963.15 258.666C967.265 304.421 993.74 345.472 1033.57 368.185C1054.01 379.841 1076.18 385.879 1100.08 386.299C1124.31 386.724 1148.09 380.619 1169.22 368.986C1191.29 356.834 1209.51 338.787 1222.32 317.171C1245.72 277.667 1247.99 227.871 1228.41 186.375C1208.85 144.923 1170.22 114.978 1124.77 107.541Z" stroke="#D1D0B9" stroke-width="2"/>
<path d="M1143.63 147.105C1127.51 119.726 1090.6 114.63 1068.39 137.904C1068.38 137.917 1068.37 137.933 1068.37 137.951C1068.37 137.969 1068.37 137.987 1068.37 138.004C1068.38 138.021 1068.39 138.035 1068.41 138.045C1068.42 138.055 1068.44 138.06 1068.46 138.059C1076.07 138.059 1083.7 138.059 1091.34 138.057C1091.88 138.057 1092.42 137.977 1092.97 137.817C1105.4 134.187 1118.46 137.916 1127.35 147.12C1127.92 147.716 1128.62 148.567 1129.43 149.673C1132.2 153.433 1134.29 157.527 1135.7 161.956C1135.71 161.995 1135.73 162.029 1135.77 162.053C1135.8 162.077 1135.84 162.09 1135.88 162.09C1142.29 162.091 1148.71 162.082 1155.13 162.06C1161.87 162.04 1167.68 157.307 1167.78 150.353C1167.79 149.351 1167.8 148.366 1167.8 147.397C1167.8 147.364 1167.79 147.333 1167.76 147.309C1167.74 147.286 1167.71 147.273 1167.68 147.273L1143.94 147.286C1143.8 147.286 1143.7 147.225 1143.63 147.105Z" stroke="#D1D0B9" stroke-width="2"/>
<path d="M1134.97 186.192C1134.99 186.192 1135.02 186.198 1135.04 186.21C1135.06 186.223 1135.08 186.241 1135.1 186.263C1135.11 186.285 1135.12 186.31 1135.12 186.337C1135.13 186.363 1135.12 186.39 1135.11 186.414C1129.68 199.306 1117.74 208.312 1103.55 208.794C1103.53 208.794 1103.51 208.791 1103.49 208.784C1103.47 208.777 1103.45 208.766 1103.44 208.753C1103.43 208.739 1103.41 208.723 1103.41 208.705C1103.4 208.687 1103.39 208.667 1103.39 208.648L1103.4 162.159C1103.4 162.149 1103.4 162.139 1103.4 162.13C1103.41 162.121 1103.41 162.113 1103.42 162.106C1103.43 162.099 1103.43 162.093 1103.44 162.09C1103.45 162.086 1103.46 162.084 1103.47 162.085L1125.05 162.09C1125.07 162.09 1125.1 162.083 1125.12 162.07C1125.14 162.057 1125.16 162.038 1125.17 162.016C1125.19 161.993 1125.19 161.968 1125.19 161.942C1125.19 161.916 1125.18 161.891 1125.17 161.87C1121.62 156.138 1116.2 151.85 1110.67 148.2C1109.74 147.585 1108.66 147.278 1107.43 147.278C1083.82 147.278 1060.2 147.278 1036.59 147.278C1036.51 147.278 1036.47 147.319 1036.46 147.402C1036.2 153.289 1040.73 157.765 1045.73 159.954C1049.03 161.396 1052.48 162.115 1056.09 162.112C1067.24 162.1 1078.38 162.089 1089.51 162.077C1089.52 162.077 1089.54 162.079 1089.55 162.084C1089.56 162.088 1089.57 162.095 1089.58 162.103C1089.59 162.112 1089.59 162.122 1089.6 162.133C1089.6 162.145 1089.61 162.157 1089.61 162.169L1089.6 205.959C1089.6 205.981 1089.6 206.003 1089.59 206.022C1089.58 206.042 1089.56 206.058 1089.54 206.07C1089.52 206.082 1089.5 206.089 1089.48 206.091C1089.46 206.093 1089.44 206.089 1089.42 206.08C1076.13 200.252 1068.04 187.46 1067.74 173.014C1067.74 172.988 1067.73 172.963 1067.71 172.945C1067.69 172.927 1067.67 172.917 1067.64 172.917L1054.97 172.915C1054.95 172.915 1054.92 172.92 1054.9 172.93C1054.87 172.94 1054.85 172.954 1054.84 172.972C1054.82 172.99 1054.8 173.012 1054.79 173.036C1054.78 173.059 1054.78 173.085 1054.78 173.11C1055.21 194.491 1068.72 213.89 1089.48 220.195C1089.56 220.221 1089.6 220.277 1089.6 220.363L1089.61 245.824C1089.61 245.85 1089.61 245.875 1089.62 245.898C1089.63 245.922 1089.65 245.943 1089.66 245.961C1089.68 245.979 1089.7 245.993 1089.73 246.003C1089.75 246.012 1089.78 246.017 1089.8 246.017C1092.33 245.955 1094.32 246.252 1096.65 244.719C1101.55 241.496 1103.39 234.752 1103.4 229.253C1103.4 226.905 1103.4 224.563 1103.4 222.229C1103.4 222.198 1103.41 222.168 1103.44 222.146C1103.46 222.123 1103.49 222.111 1103.52 222.11C1119.24 221.811 1133.62 213.719 1142.32 200.514C1148.03 191.828 1150.82 182.175 1150.68 171.556C1150.68 171.452 1150.63 171.4 1150.52 171.4L1113.06 171.402C1113.05 171.402 1113.04 171.405 1113.03 171.409C1113.02 171.414 1113.01 171.42 1113 171.428C1112.99 171.437 1112.98 171.446 1112.98 171.457C1112.97 171.468 1112.97 171.48 1112.97 171.491C1112.97 173.169 1112.9 175.058 1113.16 176.575C1113.68 179.559 1115.11 181.946 1117.44 183.735C1119.58 185.383 1122.14 186.2 1125.1 186.187C1128.43 186.172 1131.72 186.174 1134.97 186.192Z" stroke="#D1D0B9" stroke-width="2"/>
<path d="M1058.66 309.814C1058.66 309.83 1058.66 309.847 1058.67 309.863C1058.67 309.879 1058.68 309.894 1058.69 309.906C1058.7 309.919 1058.72 309.929 1058.73 309.936C1058.75 309.943 1058.77 309.947 1058.78 309.947H1068.15C1068.18 309.947 1068.21 309.936 1068.23 309.916C1068.25 309.896 1068.27 309.868 1068.27 309.838L1073.33 261.745C1073.33 261.729 1073.33 261.712 1073.32 261.696C1073.32 261.68 1073.31 261.665 1073.3 261.653C1073.29 261.64 1073.27 261.63 1073.26 261.623C1073.24 261.616 1073.23 261.612 1073.21 261.612L1063.84 261.614C1063.81 261.614 1063.78 261.625 1063.76 261.645C1063.73 261.666 1063.72 261.693 1063.72 261.723L1058.66 309.814Z" stroke="#D1D0B9" stroke-width="2"/>
<path d="M1133.6 300.387C1133.6 300.37 1133.6 300.352 1133.59 300.334C1133.59 300.317 1133.58 300.302 1133.57 300.288C1133.55 300.275 1133.54 300.264 1133.52 300.257C1133.51 300.25 1133.49 300.246 1133.47 300.246H1114.35C1114.33 300.247 1114.32 300.243 1114.3 300.236C1114.28 300.229 1114.27 300.218 1114.26 300.205C1114.25 300.192 1114.24 300.177 1114.23 300.16C1114.23 300.143 1114.22 300.126 1114.22 300.108L1118.26 261.745C1118.26 261.728 1118.26 261.71 1118.25 261.693C1118.25 261.677 1118.24 261.661 1118.23 261.648C1118.21 261.635 1118.2 261.625 1118.18 261.618C1118.17 261.611 1118.15 261.607 1118.13 261.607L1108.78 261.617C1108.75 261.617 1108.72 261.628 1108.69 261.649C1108.67 261.67 1108.65 261.699 1108.65 261.731L1103.59 309.811C1103.59 309.829 1103.59 309.846 1103.59 309.863C1103.6 309.88 1103.61 309.895 1103.62 309.908C1103.63 309.921 1103.65 309.932 1103.66 309.939C1103.68 309.946 1103.7 309.95 1103.71 309.95L1132.42 309.947C1132.45 309.947 1132.48 309.936 1132.5 309.916C1132.52 309.895 1132.54 309.867 1132.54 309.836L1133.6 300.387Z" stroke="#D1D0B9" stroke-width="2"/>
<path d="M975.147 261.614C975.117 261.615 975.088 261.626 975.067 261.646C975.045 261.666 975.031 261.694 975.028 261.723L974.586 266.221C974.584 266.238 974.586 266.255 974.591 266.271C974.596 266.288 974.605 266.302 974.616 266.315C974.628 266.328 974.642 266.338 974.657 266.345C974.673 266.351 974.69 266.355 974.707 266.355L993.71 266.357C993.74 266.357 993.768 266.346 993.79 266.325C993.812 266.305 993.826 266.278 993.829 266.249L994.278 261.745C994.28 261.729 994.278 261.711 994.273 261.695C994.268 261.679 994.259 261.664 994.248 261.652C994.236 261.639 994.222 261.629 994.207 261.622C994.191 261.615 994.174 261.612 994.157 261.612L975.147 261.614Z" stroke="#D1D0B9" stroke-width="2"/>
<path d="M1007.35 271.295C1007.37 271.295 1007.38 271.298 1007.4 271.304C1007.41 271.31 1007.42 271.318 1007.43 271.329C1007.44 271.34 1007.45 271.352 1007.45 271.366C1007.46 271.38 1007.46 271.395 1007.46 271.409L1003.41 309.833C1003.41 309.848 1003.41 309.862 1003.41 309.876C1003.42 309.89 1003.42 309.902 1003.43 309.913C1003.44 309.924 1003.46 309.932 1003.47 309.938C1003.48 309.944 1003.5 309.947 1003.51 309.947H1013.05C1013.08 309.947 1013.1 309.938 1013.12 309.92C1013.14 309.903 1013.15 309.879 1013.16 309.853L1017.2 271.397C1017.21 271.371 1017.22 271.347 1017.24 271.329C1017.26 271.312 1017.28 271.303 1017.31 271.303L1026.61 271.305C1026.64 271.305 1026.66 271.296 1026.68 271.278C1026.7 271.261 1026.71 271.237 1026.71 271.211L1027.72 261.731C1027.72 261.716 1027.71 261.702 1027.71 261.688C1027.71 261.674 1027.7 261.661 1027.69 261.651C1027.68 261.64 1027.67 261.631 1027.65 261.626C1027.64 261.62 1027.63 261.617 1027.61 261.617H998.863C998.837 261.617 998.812 261.626 998.793 261.644C998.774 261.661 998.762 261.685 998.759 261.711L997.768 271.194C997.767 271.208 997.768 271.223 997.773 271.237C997.778 271.25 997.785 271.263 997.795 271.274C997.805 271.285 997.816 271.293 997.83 271.299C997.843 271.305 997.857 271.308 997.872 271.308L1007.35 271.295Z" stroke="#D1D0B9" stroke-width="2"/>
<path d="M1035.04 309.947C1035.07 309.947 1035.1 309.934 1035.13 309.91C1035.15 309.887 1035.17 309.855 1035.17 309.821L1037.19 290.674C1037.2 290.64 1037.21 290.608 1037.24 290.585C1037.26 290.562 1037.3 290.549 1037.33 290.548H1040.29C1040.31 290.548 1040.34 290.557 1040.36 290.574C1040.39 290.59 1040.41 290.613 1040.42 290.64L1045.39 303.647C1045.4 303.668 1045.4 303.691 1045.4 303.714L1044.77 309.791C1044.77 309.811 1044.77 309.831 1044.78 309.849C1044.78 309.868 1044.79 309.885 1044.81 309.9C1044.82 309.914 1044.83 309.926 1044.85 309.934C1044.87 309.942 1044.89 309.947 1044.91 309.947H1054.31C1054.34 309.947 1054.38 309.934 1054.4 309.91C1054.43 309.886 1054.44 309.854 1054.45 309.818L1055.29 301.015C1055.29 300.996 1055.29 300.976 1055.28 300.958L1051.91 290.726C1051.9 290.705 1051.9 290.682 1051.91 290.66C1051.91 290.638 1051.92 290.617 1051.93 290.598C1051.94 290.58 1051.96 290.566 1051.98 290.556C1052 290.545 1052.02 290.54 1052.05 290.541L1056.25 290.578C1056.28 290.578 1056.31 290.565 1056.34 290.542C1056.37 290.519 1056.38 290.487 1056.39 290.452L1059.43 261.77C1059.43 261.751 1059.43 261.731 1059.42 261.712C1059.42 261.694 1059.41 261.676 1059.39 261.662C1059.38 261.647 1059.37 261.635 1059.35 261.627C1059.33 261.619 1059.31 261.615 1059.29 261.614L1030.62 261.617C1030.59 261.617 1030.55 261.63 1030.53 261.654C1030.5 261.677 1030.49 261.709 1030.48 261.743L1025.43 309.791C1025.43 309.811 1025.43 309.831 1025.44 309.849C1025.45 309.868 1025.46 309.885 1025.47 309.9C1025.48 309.914 1025.5 309.926 1025.52 309.934C1025.53 309.942 1025.55 309.947 1025.57 309.947H1035.04Z" stroke="#D1D0B9" stroke-width="2"/>
<path d="M1083.21 300.246C1083.19 300.246 1083.18 300.243 1083.17 300.238C1083.15 300.232 1083.14 300.223 1083.13 300.213C1083.12 300.202 1083.11 300.189 1083.11 300.175C1083.1 300.162 1083.1 300.147 1083.1 300.133L1087.14 261.723C1087.15 261.709 1087.14 261.694 1087.14 261.68C1087.14 261.667 1087.13 261.654 1087.12 261.643C1087.11 261.633 1087.1 261.624 1087.08 261.618C1087.07 261.612 1087.06 261.609 1087.04 261.609L1077.64 261.612C1077.61 261.612 1077.59 261.621 1077.57 261.639C1077.55 261.656 1077.54 261.68 1077.54 261.706L1072.47 309.833C1072.47 309.848 1072.47 309.862 1072.48 309.876C1072.48 309.89 1072.49 309.902 1072.5 309.913C1072.51 309.924 1072.52 309.932 1072.53 309.938C1072.55 309.944 1072.56 309.947 1072.58 309.947H1101.32C1101.35 309.947 1101.37 309.938 1101.39 309.921C1101.41 309.904 1101.42 309.881 1101.43 309.856L1102.48 300.363C1102.48 300.348 1102.48 300.333 1102.47 300.319C1102.47 300.305 1102.46 300.292 1102.45 300.281C1102.44 300.27 1102.43 300.261 1102.41 300.255C1102.4 300.249 1102.39 300.246 1102.37 300.246H1083.21Z" stroke="#D1D0B9" stroke-width="2"/>
<path d="M1149.39 261.76C1149.39 261.741 1149.39 261.722 1149.38 261.704C1149.38 261.685 1149.37 261.669 1149.36 261.654C1149.34 261.64 1149.33 261.629 1149.31 261.621C1149.29 261.613 1149.27 261.609 1149.25 261.609L1139.92 261.612C1139.88 261.612 1139.85 261.624 1139.83 261.646C1139.8 261.669 1139.79 261.7 1139.78 261.733L1134.72 309.796C1134.72 309.815 1134.72 309.835 1134.73 309.853C1134.73 309.871 1134.74 309.888 1134.76 309.902C1134.77 309.916 1134.78 309.928 1134.8 309.935C1134.82 309.943 1134.84 309.947 1134.86 309.947H1144.2C1144.24 309.947 1144.27 309.935 1144.29 309.913C1144.32 309.89 1144.33 309.859 1144.34 309.826L1149.39 261.76Z" stroke="#D1D0B9" stroke-width="2"/>
<path d="M1148.54 309.826C1148.53 309.841 1148.54 309.857 1148.54 309.871C1148.55 309.886 1148.55 309.899 1148.56 309.911C1148.57 309.922 1148.59 309.931 1148.6 309.938C1148.61 309.944 1148.63 309.947 1148.65 309.947H1177.37C1177.4 309.947 1177.42 309.937 1177.44 309.92C1177.46 309.902 1177.48 309.877 1177.48 309.851L1182.54 261.736C1182.55 261.72 1182.54 261.705 1182.54 261.69C1182.54 261.675 1182.53 261.662 1182.52 261.651C1182.51 261.639 1182.49 261.63 1182.48 261.624C1182.47 261.618 1182.45 261.614 1182.44 261.614L1153.7 261.617C1153.68 261.617 1153.65 261.626 1153.63 261.644C1153.61 261.662 1153.6 261.687 1153.6 261.713L1148.54 309.826Z" stroke="#D1D0B9" stroke-width="2"/>
<path d="M1195.54 271.407C1195.55 271.38 1195.56 271.355 1195.58 271.337C1195.6 271.318 1195.62 271.308 1195.65 271.308L1205.09 271.295C1205.11 271.295 1205.12 271.298 1205.14 271.305C1205.15 271.311 1205.16 271.32 1205.17 271.332C1205.18 271.344 1205.19 271.358 1205.2 271.373C1205.2 271.387 1205.2 271.403 1205.2 271.419L1201.16 309.823C1201.16 309.839 1201.16 309.855 1201.16 309.87C1201.17 309.885 1201.17 309.899 1201.19 309.91C1201.2 309.922 1201.21 309.931 1201.22 309.938C1201.24 309.944 1201.25 309.947 1201.27 309.947H1210.59C1210.61 309.947 1210.64 309.937 1210.66 309.919C1210.68 309.901 1210.69 309.875 1210.7 309.848L1215.76 261.738C1215.76 261.722 1215.76 261.707 1215.76 261.692C1215.75 261.677 1215.74 261.663 1215.73 261.651C1215.72 261.64 1215.71 261.63 1215.7 261.624C1215.68 261.618 1215.67 261.614 1215.65 261.614L1186.92 261.617C1186.9 261.617 1186.87 261.627 1186.85 261.645C1186.83 261.663 1186.82 261.688 1186.81 261.716L1181.75 309.823C1181.75 309.839 1181.75 309.855 1181.76 309.87C1181.76 309.885 1181.77 309.899 1181.78 309.91C1181.79 309.922 1181.8 309.931 1181.82 309.938C1181.83 309.944 1181.85 309.947 1181.86 309.947H1191.39C1191.41 309.947 1191.44 309.937 1191.46 309.919C1191.48 309.901 1191.5 309.875 1191.5 309.848L1195.54 271.407Z" stroke="#D1D0B9" stroke-width="2"/>
<path d="M1214.99 309.809C1214.99 309.826 1214.99 309.843 1214.99 309.859C1215 309.875 1215.01 309.89 1215.02 309.903C1215.03 309.916 1215.04 309.926 1215.06 309.933C1215.08 309.941 1215.09 309.944 1215.11 309.945L1224.48 309.952C1224.51 309.952 1224.54 309.941 1224.56 309.92C1224.58 309.9 1224.6 309.871 1224.6 309.841L1229.65 261.743C1229.66 261.726 1229.65 261.708 1229.65 261.692C1229.64 261.675 1229.63 261.66 1229.62 261.648C1229.61 261.635 1229.6 261.624 1229.58 261.617C1229.56 261.611 1229.55 261.607 1229.53 261.607L1220.17 261.612C1220.14 261.612 1220.11 261.623 1220.09 261.644C1220.06 261.664 1220.05 261.693 1220.05 261.723L1214.99 309.809Z" stroke="#D1D0B9" stroke-width="2"/>
<path d="M992.679 276.041C992.706 276.041 992.733 276.031 992.753 276.012C992.773 275.994 992.786 275.969 992.788 275.942L993.235 271.421C993.237 271.406 993.235 271.391 993.23 271.377C993.225 271.362 993.217 271.349 993.207 271.338C993.197 271.327 993.185 271.318 993.171 271.312C993.157 271.306 993.142 271.303 993.127 271.303L977.381 271.3C977.354 271.3 977.328 271.31 977.308 271.328C977.288 271.345 977.275 271.37 977.272 271.397L976.75 275.927C976.749 275.942 976.75 275.957 976.755 275.972C976.759 275.986 976.767 276 976.777 276.011C976.787 276.022 976.799 276.032 976.813 276.038C976.827 276.044 976.842 276.048 976.857 276.048L992.679 276.041Z" stroke="#D1D0B9" stroke-width="2"/>
<path d="M991.708 285.744C991.736 285.744 991.763 285.733 991.783 285.715C991.804 285.696 991.817 285.67 991.819 285.642L992.264 281.11C992.265 281.094 992.264 281.079 992.259 281.064C992.254 281.049 992.246 281.036 992.235 281.024C992.225 281.013 992.212 281.004 992.198 280.998C992.184 280.992 992.168 280.988 992.153 280.988L979.546 280.993C979.518 280.993 979.491 281.004 979.47 281.022C979.45 281.041 979.437 281.067 979.435 281.095L978.992 285.618C978.991 285.633 978.993 285.649 978.998 285.663C979.003 285.678 979.011 285.691 979.021 285.703C979.031 285.714 979.044 285.723 979.058 285.729C979.073 285.736 979.088 285.739 979.103 285.739L991.708 285.744Z" stroke="#D1D0B9" stroke-width="2"/>
<path d="M981.824 290.615C981.787 290.615 981.751 290.629 981.723 290.654C981.695 290.679 981.677 290.714 981.674 290.751L981.221 295.207C981.219 295.228 981.222 295.249 981.228 295.269C981.235 295.289 981.245 295.307 981.259 295.322C981.273 295.338 981.29 295.351 981.309 295.359C981.328 295.368 981.349 295.372 981.37 295.373L990.645 295.392C990.682 295.392 990.718 295.378 990.745 295.353C990.773 295.328 990.79 295.293 990.794 295.256L991.233 290.776C991.236 290.755 991.233 290.734 991.227 290.714C991.22 290.694 991.21 290.676 991.196 290.66C991.182 290.645 991.165 290.632 991.146 290.624C991.127 290.615 991.106 290.61 991.085 290.61L981.824 290.615Z" stroke="#D1D0B9" stroke-width="2"/>
<path d="M984.049 300.313C984.012 300.313 983.977 300.326 983.95 300.35C983.922 300.374 983.905 300.408 983.901 300.444L983.404 304.9C983.401 304.921 983.403 304.942 983.41 304.962C983.416 304.982 983.427 305.001 983.441 305.016C983.455 305.032 983.472 305.045 983.491 305.053C983.51 305.062 983.531 305.066 983.552 305.066H989.6C989.637 305.066 989.672 305.052 989.7 305.028C989.727 305.003 989.744 304.969 989.748 304.932L990.2 300.481C990.203 300.461 990.2 300.44 990.194 300.42C990.188 300.401 990.177 300.383 990.163 300.367C990.15 300.352 990.133 300.34 990.114 300.331C990.096 300.323 990.075 300.318 990.055 300.318L984.049 300.313Z" stroke="#D1D0B9" stroke-width="2"/>
<path d="M1036.4 342.015C1036.42 340.888 1036.86 338.463 1038.23 338.463C1043.11 338.463 1047.98 338.463 1052.84 338.463C1052.88 338.463 1052.92 338.447 1052.95 338.417C1052.97 338.388 1052.99 338.349 1052.99 338.307L1052.99 332.314C1052.99 332.297 1052.99 332.28 1052.98 332.265C1052.98 332.249 1052.97 332.235 1052.96 332.223C1052.94 332.211 1052.93 332.202 1052.91 332.195C1052.9 332.189 1052.88 332.185 1052.87 332.185C1047.78 332.189 1042.68 332.189 1037.56 332.185C1036.5 332.185 1035.71 332.266 1035.22 332.428C1033.33 333.043 1032.03 334.963 1031.56 336.815C1031.4 337.459 1031.32 338.584 1031.31 340.191C1031.3 343.217 1031.3 346.245 1031.31 349.273C1031.32 350.715 1031.4 351.759 1031.57 352.405C1032.11 354.528 1033.65 356.596 1035.89 356.997C1036.09 357.031 1037.16 357.05 1039.1 357.051C1043.71 357.054 1048.31 357.055 1052.89 357.054C1052.93 357.054 1052.97 357.038 1053 357.011C1053.03 356.984 1053.04 356.947 1053.04 356.908L1053.05 350.981C1053.05 350.952 1053.04 350.925 1053.02 350.904C1053 350.884 1052.97 350.872 1052.94 350.872C1048.54 350.872 1044.13 350.872 1039.7 350.872C1038.81 350.872 1038.28 350.851 1038.12 350.808C1036.74 350.447 1036.4 348.344 1036.39 347.143C1036.37 345.434 1036.37 343.725 1036.4 342.015Z" stroke="#D1D0B9" stroke-width="2"/>
<path d="M1067.57 350.68C1070.23 350.652 1072.9 350.649 1075.56 350.672C1076.23 350.677 1076.59 350.952 1076.97 351.441C1077.17 351.7 1077.27 352.054 1077.27 352.504C1077.28 353.972 1077.28 355.443 1077.27 356.918C1077.27 356.954 1077.28 356.988 1077.31 357.014C1077.33 357.039 1077.37 357.054 1077.4 357.054L1082.14 357.056C1082.16 357.056 1082.19 357.046 1082.2 357.028C1082.22 357.01 1082.23 356.985 1082.23 356.96C1082.25 355.042 1082.25 353.122 1082.24 351.199C1082.23 349.404 1081.53 348.495 1080.51 347.148C1080.45 347.067 1080.44 346.983 1080.49 346.896C1081.07 345.912 1082.18 344.4 1082.22 343.315C1082.27 342.179 1082.28 340.262 1082.24 337.561C1082.22 336.413 1082.11 335.567 1081.89 335.025C1081.36 333.693 1080.03 332.198 1078.51 332.195C1073.23 332.181 1067.94 332.18 1062.64 332.193C1062.56 332.195 1062.52 332.236 1062.52 332.317L1062.53 338.122C1062.53 338.201 1062.57 338.241 1062.65 338.241C1066.94 338.251 1071.22 338.252 1075.51 338.246C1076.19 338.243 1076.76 338.209 1077.03 338.804C1077.62 340.112 1077.7 341.478 1077.26 342.902C1077.03 343.648 1076.54 344.358 1075.74 344.36C1071.35 344.367 1066.99 344.368 1062.64 344.363C1062.56 344.363 1062.52 344.402 1062.52 344.481L1062.53 356.972C1062.53 356.994 1062.54 357.015 1062.55 357.03C1062.57 357.045 1062.59 357.054 1062.61 357.054L1067.33 357.049C1067.36 357.049 1067.4 357.034 1067.42 357.009C1067.45 356.983 1067.46 356.949 1067.46 356.913V350.793C1067.46 350.718 1067.5 350.68 1067.57 350.68Z" stroke="#D1D0B9" stroke-width="2"/>
<path d="M1095.56 341.792C1095.67 340.643 1096.13 338.71 1097.67 338.678C1100.07 338.629 1102.47 338.608 1104.87 338.616C1106.94 338.624 1107.6 339.951 1107.71 341.8C1107.72 341.84 1107.73 341.877 1107.76 341.905C1107.79 341.933 1107.83 341.948 1107.87 341.948H1112.55C1112.63 341.948 1112.67 341.911 1112.67 341.837C1112.76 339.555 1112.44 337.409 1111.7 335.401C1111.16 333.911 1109.67 332.193 1107.93 332.19C1104.08 332.184 1100.23 332.184 1096.38 332.19C1095.42 332.192 1094.73 332.274 1094.29 332.435C1091.07 333.636 1090.62 338.947 1090.59 341.785C1090.59 341.829 1090.6 341.871 1090.64 341.902C1090.67 341.933 1090.71 341.95 1090.75 341.95L1095.38 341.948C1095.43 341.948 1095.47 341.932 1095.5 341.904C1095.53 341.875 1095.55 341.835 1095.56 341.792Z" stroke="#D1D0B9" stroke-width="2"/>
<path d="M1143.87 332.339C1143.87 332.299 1143.85 332.26 1143.82 332.232C1143.8 332.204 1143.76 332.188 1143.72 332.188H1138.93C1138.89 332.188 1138.85 332.204 1138.82 332.232C1138.79 332.26 1138.78 332.299 1138.78 332.339V347.425C1138.78 347.465 1138.79 347.503 1138.82 347.531C1138.85 347.56 1138.89 347.576 1138.93 347.576H1143.72C1143.76 347.576 1143.8 347.56 1143.82 347.531C1143.85 347.503 1143.87 347.465 1143.87 347.425V332.339Z" stroke="#D1D0B9" stroke-width="2"/>
<path d="M1158.33 350.677C1161.48 350.653 1164.63 350.65 1167.78 350.67C1168.8 350.676 1169.51 350.616 1169.91 350.489C1172.09 349.79 1172.93 347.558 1172.93 345.462C1172.94 342.666 1172.95 339.869 1172.97 337.072C1172.98 335.206 1171.98 333.107 1170.14 332.42C1169.73 332.264 1169.06 332.185 1168.15 332.185C1163.19 332.187 1158.26 332.189 1153.35 332.19C1153.32 332.19 1153.28 332.203 1153.26 332.227C1153.24 332.25 1153.22 332.281 1153.22 332.314V338.181C1153.22 338.198 1153.23 338.215 1153.24 338.227C1153.25 338.239 1153.27 338.246 1153.29 338.246C1157.78 338.244 1162.29 338.245 1166.79 338.248C1168.38 338.251 1168.29 341.201 1168.2 342.225C1168.11 343.305 1168.02 344.343 1166.75 344.34C1162.27 344.324 1157.79 344.32 1153.32 344.328C1153.3 344.328 1153.27 344.338 1153.25 344.357C1153.24 344.375 1153.23 344.401 1153.23 344.427V356.95C1153.23 356.976 1153.24 357.001 1153.25 357.02C1153.27 357.038 1153.3 357.049 1153.32 357.049L1158 357.054C1158.04 357.054 1158.08 357.036 1158.11 357.004C1158.14 356.973 1158.16 356.93 1158.16 356.886V350.845C1158.16 350.735 1158.22 350.679 1158.33 350.677Z" stroke="#D1D0B9" stroke-width="2"/>
<path d="M1129 350.776C1127.52 350.766 1127.2 347.842 1127.19 346.723C1127.18 341.951 1127.18 337.182 1127.19 332.415C1127.19 332.402 1127.19 332.388 1127.18 332.376C1127.18 332.363 1127.17 332.352 1127.16 332.342C1127.15 332.332 1127.14 332.325 1127.12 332.319C1127.11 332.314 1127.1 332.312 1127.08 332.312L1122.26 332.314C1122.18 332.314 1122.14 332.358 1122.14 332.445C1122.13 338.134 1122.13 343.824 1122.14 349.513C1122.14 351.836 1122.39 353.334 1123.66 355.074C1124.65 356.423 1125.87 357.097 1127.33 357.096C1132.8 357.089 1138.26 357.087 1143.7 357.091C1143.73 357.091 1143.76 357.078 1143.78 357.055C1143.81 357.031 1143.82 357 1143.82 356.967L1143.81 350.981C1143.81 350.96 1143.81 350.939 1143.8 350.919C1143.79 350.899 1143.78 350.881 1143.76 350.866C1143.75 350.851 1143.73 350.839 1143.71 350.831C1143.69 350.822 1143.67 350.818 1143.65 350.818C1138.78 350.828 1133.9 350.814 1129 350.776Z" stroke="#D1D0B9" stroke-width="2"/>
<path d="M1053.05 342.442C1053.05 342.405 1053.03 342.37 1053.01 342.344C1052.98 342.318 1052.95 342.304 1052.91 342.304H1048.09C1048.05 342.304 1048.01 342.318 1047.99 342.344C1047.96 342.37 1047.95 342.405 1047.95 342.442V349.254C1047.95 349.29 1047.96 349.326 1047.99 349.351C1048.01 349.377 1048.05 349.392 1048.09 349.392H1052.91C1052.95 349.392 1052.98 349.377 1053.01 349.351C1053.03 349.326 1053.05 349.29 1053.05 349.254V342.442Z" stroke="#D1D0B9" stroke-width="2"/>
<path d="M1098.1 350.645C1096.23 350.633 1095.67 348.952 1095.57 347.449C1095.57 347.417 1095.55 347.386 1095.53 347.363C1095.51 347.341 1095.48 347.328 1095.44 347.328H1090.69C1090.63 347.328 1090.6 347.359 1090.6 347.42C1090.58 350.257 1091.14 355.722 1094.31 356.824C1094.71 356.964 1095.31 357.036 1096.12 357.039C1099.76 357.059 1103.4 357.059 1107.05 357.041C1108.04 357.036 1108.77 356.924 1109.25 356.703C1112.24 355.329 1112.72 350.252 1112.7 347.457C1112.7 347.423 1112.68 347.39 1112.66 347.366C1112.63 347.342 1112.6 347.328 1112.57 347.328H1107.87C1107.79 347.328 1107.75 347.367 1107.73 347.445C1107.49 349.162 1107.06 350.655 1104.99 350.66C1102.7 350.665 1100.4 350.66 1098.1 350.645Z" stroke="#D1D0B9" stroke-width="2"/>
<path d="M1038.24 280.722C1038.23 280.738 1038.24 280.755 1038.24 280.77C1038.25 280.786 1038.25 280.8 1038.27 280.813C1038.28 280.825 1038.29 280.835 1038.3 280.842C1038.32 280.849 1038.34 280.852 1038.35 280.853L1047.66 280.85C1047.69 280.85 1047.72 280.839 1047.74 280.82C1047.76 280.8 1047.78 280.773 1047.78 280.744L1048.68 271.431C1048.68 271.415 1048.68 271.398 1048.67 271.382C1048.67 271.366 1048.66 271.352 1048.65 271.339C1048.64 271.327 1048.62 271.317 1048.61 271.31C1048.59 271.304 1048.58 271.3 1048.56 271.3H1039.33C1039.3 271.3 1039.28 271.311 1039.25 271.331C1039.23 271.35 1039.22 271.377 1039.22 271.407L1038.24 280.722Z" stroke="#D1D0B9" stroke-width="2"/>
<path d="M1159.3 300.113C1159.3 300.13 1159.31 300.147 1159.31 300.162C1159.32 300.178 1159.32 300.193 1159.33 300.206C1159.35 300.218 1159.36 300.228 1159.37 300.235C1159.39 300.242 1159.41 300.246 1159.42 300.246H1168.7C1168.73 300.247 1168.76 300.235 1168.79 300.215C1168.81 300.195 1168.82 300.168 1168.83 300.138L1171.78 271.434C1171.78 271.417 1171.78 271.4 1171.77 271.384C1171.77 271.368 1171.76 271.353 1171.75 271.341C1171.74 271.328 1171.72 271.318 1171.71 271.311C1171.69 271.304 1171.67 271.3 1171.66 271.3H1162.45C1162.42 271.3 1162.39 271.311 1162.36 271.331C1162.34 271.351 1162.33 271.379 1162.33 271.409L1159.3 300.113Z" stroke="#D1D0B9" stroke-width="2"/>
<path d="M1190.93 364.767C1142.03 401.931 1074.22 404.477 1022.8 371.416C1003.12 358.765 987.195 342.262 975.016 321.907C955.303 288.954 949.569 248.763 958.39 211.468C963.558 189.612 973.187 169.964 987.274 152.525C997.186 140.253 1008.68 129.834 1021.75 121.268C1069.7 89.8455 1132.57 89.6206 1180.6 120.05C1199.18 131.817 1214.51 147.073 1226.59 165.817C1246.95 197.42 1254.13 236.123 1247.47 273.04C1240.86 309.648 1220.45 342.329 1190.93 364.767ZM1124.77 107.541C1060.13 96.9659 998.072 132.597 973.11 192.541C964.445 213.346 961.145 236.373 963.15 258.666C967.265 304.421 993.74 345.472 1033.57 368.185C1054.01 379.841 1076.18 385.879 1100.08 386.299C1124.31 386.724 1148.09 380.619 1169.22 368.986C1191.29 356.834 1209.51 338.787 1222.32 317.171C1245.72 277.667 1247.99 227.871 1228.41 186.375C1208.85 144.923 1170.22 114.978 1124.77 107.541Z" fill="#A3A073"/>
<path d="M973.11 192.541C998.072 132.597 1060.13 96.9659 1124.77 107.541C1170.22 114.978 1208.85 144.923 1228.41 186.375C1247.99 227.871 1245.72 277.667 1222.32 317.171C1209.51 338.787 1191.29 356.834 1169.22 368.986C1148.09 380.619 1124.31 386.724 1100.08 386.299C1076.18 385.879 1054.01 379.841 1033.57 368.185C993.74 345.472 967.265 304.421 963.15 258.666C961.146 236.373 964.445 213.346 973.11 192.541ZM1143.63 147.105C1127.51 119.726 1090.6 114.63 1068.39 137.904C1068.38 137.917 1068.37 137.933 1068.37 137.951C1068.37 137.969 1068.37 137.987 1068.37 138.004C1068.38 138.021 1068.39 138.035 1068.41 138.045C1068.42 138.055 1068.44 138.06 1068.46 138.059C1076.07 138.059 1083.7 138.059 1091.34 138.057C1091.88 138.057 1092.42 137.977 1092.97 137.817C1105.4 134.187 1118.46 137.916 1127.35 147.12C1127.92 147.716 1128.62 148.567 1129.43 149.673C1132.2 153.433 1134.29 157.527 1135.7 161.956C1135.71 161.995 1135.73 162.029 1135.77 162.053C1135.8 162.077 1135.84 162.09 1135.88 162.09C1142.29 162.091 1148.71 162.082 1155.13 162.06C1161.87 162.04 1167.68 157.307 1167.78 150.353C1167.79 149.351 1167.8 148.366 1167.8 147.397C1167.8 147.364 1167.79 147.333 1167.76 147.309C1167.74 147.286 1167.71 147.273 1167.68 147.273L1143.94 147.286C1143.8 147.286 1143.7 147.225 1143.63 147.105ZM1134.97 186.192C1134.99 186.192 1135.02 186.198 1135.04 186.21C1135.06 186.223 1135.08 186.241 1135.1 186.263C1135.11 186.285 1135.12 186.31 1135.12 186.337C1135.13 186.363 1135.12 186.39 1135.11 186.414C1129.68 199.306 1117.74 208.312 1103.55 208.794C1103.53 208.794 1103.51 208.791 1103.49 208.784C1103.47 208.777 1103.45 208.766 1103.44 208.753C1103.43 208.739 1103.41 208.723 1103.41 208.705C1103.4 208.687 1103.39 208.667 1103.39 208.648L1103.4 162.159C1103.4 162.149 1103.4 162.139 1103.4 162.13C1103.41 162.121 1103.41 162.113 1103.42 162.106C1103.43 162.099 1103.43 162.093 1103.44 162.09C1103.45 162.086 1103.46 162.084 1103.47 162.085L1125.05 162.09C1125.07 162.09 1125.1 162.083 1125.12 162.07C1125.14 162.057 1125.16 162.038 1125.17 162.016C1125.19 161.993 1125.19 161.968 1125.19 161.942C1125.19 161.916 1125.18 161.891 1125.17 161.87C1121.62 156.138 1116.2 151.85 1110.67 148.2C1109.74 147.585 1108.66 147.278 1107.43 147.278C1083.82 147.278 1060.2 147.278 1036.59 147.278C1036.51 147.278 1036.47 147.319 1036.46 147.402C1036.2 153.289 1040.73 157.765 1045.73 159.954C1049.03 161.396 1052.48 162.115 1056.09 162.112C1067.24 162.1 1078.38 162.089 1089.51 162.077C1089.52 162.077 1089.54 162.079 1089.55 162.084C1089.56 162.088 1089.57 162.095 1089.58 162.103C1089.59 162.112 1089.59 162.122 1089.6 162.133C1089.6 162.145 1089.61 162.157 1089.61 162.169L1089.6 205.959C1089.6 205.981 1089.6 206.003 1089.59 206.022C1089.58 206.042 1089.56 206.058 1089.54 206.07C1089.52 206.082 1089.5 206.089 1089.48 206.091C1089.46 206.093 1089.44 206.089 1089.42 206.08C1076.13 200.252 1068.04 187.46 1067.74 173.014C1067.74 172.988 1067.73 172.963 1067.71 172.945C1067.69 172.927 1067.67 172.917 1067.64 172.917L1054.97 172.915C1054.95 172.915 1054.92 172.92 1054.9 172.93C1054.87 172.94 1054.85 172.954 1054.84 172.972C1054.82 172.99 1054.8 173.012 1054.79 173.036C1054.79 173.059 1054.78 173.085 1054.78 173.11C1055.21 194.491 1068.72 213.89 1089.48 220.195C1089.56 220.221 1089.6 220.277 1089.6 220.363L1089.61 245.824C1089.61 245.85 1089.61 245.875 1089.62 245.898C1089.63 245.922 1089.65 245.943 1089.66 245.961C1089.68 245.979 1089.7 245.993 1089.73 246.003C1089.75 246.012 1089.78 246.017 1089.8 246.017C1092.33 245.955 1094.32 246.252 1096.65 244.719C1101.55 241.496 1103.39 234.752 1103.4 229.253C1103.4 226.905 1103.4 224.563 1103.4 222.229C1103.4 222.198 1103.41 222.168 1103.44 222.146C1103.46 222.123 1103.49 222.111 1103.52 222.11C1119.24 221.811 1133.62 213.719 1142.32 200.514C1148.03 191.828 1150.82 182.175 1150.68 171.556C1150.68 171.452 1150.63 171.4 1150.52 171.4L1113.06 171.402C1113.05 171.402 1113.04 171.405 1113.03 171.409C1113.02 171.414 1113.01 171.42 1113 171.428C1112.99 171.437 1112.98 171.446 1112.98 171.457C1112.97 171.468 1112.97 171.48 1112.97 171.491C1112.97 173.169 1112.9 175.058 1113.16 176.575C1113.68 179.559 1115.11 181.946 1117.44 183.735C1119.58 185.383 1122.14 186.2 1125.1 186.187C1128.43 186.172 1131.72 186.174 1134.97 186.192ZM1058.66 309.813C1058.66 309.83 1058.66 309.847 1058.67 309.863C1058.67 309.879 1058.68 309.894 1058.69 309.906C1058.7 309.919 1058.72 309.929 1058.73 309.936C1058.75 309.943 1058.77 309.947 1058.78 309.947H1068.15C1068.18 309.947 1068.21 309.936 1068.23 309.916C1068.25 309.896 1068.27 309.868 1068.27 309.838L1073.33 261.745C1073.33 261.729 1073.33 261.712 1073.32 261.696C1073.32 261.68 1073.31 261.665 1073.3 261.653C1073.29 261.64 1073.27 261.63 1073.26 261.623C1073.24 261.616 1073.23 261.612 1073.21 261.612L1063.84 261.614C1063.81 261.614 1063.78 261.625 1063.76 261.645C1063.73 261.665 1063.72 261.693 1063.72 261.723L1058.66 309.813ZM1133.6 300.387C1133.6 300.369 1133.6 300.351 1133.59 300.334C1133.59 300.317 1133.58 300.302 1133.57 300.288C1133.55 300.275 1133.54 300.264 1133.52 300.257C1133.51 300.25 1133.49 300.246 1133.47 300.246H1114.35C1114.33 300.246 1114.32 300.243 1114.3 300.236C1114.28 300.229 1114.27 300.218 1114.26 300.205C1114.25 300.192 1114.24 300.177 1114.23 300.16C1114.23 300.143 1114.22 300.125 1114.23 300.108L1118.26 261.745C1118.26 261.728 1118.26 261.71 1118.25 261.693C1118.25 261.677 1118.24 261.661 1118.23 261.648C1118.21 261.635 1118.2 261.625 1118.18 261.618C1118.17 261.611 1118.15 261.607 1118.13 261.607L1108.78 261.617C1108.75 261.617 1108.72 261.628 1108.69 261.649C1108.67 261.67 1108.65 261.699 1108.65 261.731L1103.59 309.811C1103.59 309.829 1103.59 309.846 1103.59 309.863C1103.6 309.88 1103.61 309.895 1103.62 309.908C1103.63 309.921 1103.65 309.932 1103.66 309.939C1103.68 309.946 1103.7 309.949 1103.71 309.949L1132.42 309.947C1132.45 309.947 1132.48 309.936 1132.5 309.915C1132.52 309.895 1132.54 309.867 1132.54 309.836L1133.6 300.387ZM975.147 261.614C975.117 261.615 975.088 261.626 975.067 261.646C975.045 261.666 975.031 261.694 975.028 261.723L974.586 266.221C974.584 266.238 974.586 266.255 974.591 266.271C974.596 266.288 974.605 266.302 974.616 266.315C974.628 266.328 974.642 266.338 974.657 266.344C974.673 266.351 974.69 266.355 974.707 266.355L993.71 266.357C993.74 266.357 993.768 266.345 993.79 266.325C993.812 266.305 993.826 266.278 993.829 266.248L994.278 261.745C994.28 261.728 994.278 261.711 994.273 261.695C994.268 261.679 994.259 261.664 994.248 261.652C994.236 261.639 994.222 261.629 994.207 261.622C994.191 261.615 994.174 261.612 994.157 261.612L975.147 261.614ZM1007.36 271.295C1007.37 271.295 1007.38 271.298 1007.4 271.304C1007.41 271.31 1007.42 271.318 1007.43 271.329C1007.44 271.34 1007.45 271.352 1007.45 271.366C1007.46 271.38 1007.46 271.394 1007.46 271.409L1003.41 309.833C1003.41 309.848 1003.41 309.862 1003.41 309.876C1003.42 309.89 1003.43 309.902 1003.43 309.913C1003.44 309.924 1003.46 309.932 1003.47 309.938C1003.48 309.944 1003.5 309.947 1003.51 309.947H1013.05C1013.08 309.947 1013.1 309.938 1013.12 309.92C1013.14 309.903 1013.15 309.879 1013.16 309.853L1017.2 271.397C1017.21 271.371 1017.22 271.347 1017.24 271.329C1017.26 271.312 1017.28 271.303 1017.31 271.303L1026.61 271.305C1026.64 271.305 1026.66 271.296 1026.68 271.278C1026.7 271.261 1026.71 271.237 1026.71 271.211L1027.72 261.731C1027.72 261.716 1027.72 261.702 1027.71 261.688C1027.71 261.674 1027.7 261.661 1027.69 261.651C1027.68 261.64 1027.67 261.631 1027.65 261.626C1027.64 261.62 1027.63 261.617 1027.61 261.617H998.863C998.837 261.617 998.812 261.626 998.793 261.644C998.774 261.661 998.762 261.685 998.759 261.711L997.768 271.194C997.767 271.208 997.768 271.223 997.773 271.237C997.778 271.25 997.785 271.263 997.795 271.274C997.805 271.284 997.817 271.293 997.83 271.299C997.843 271.305 997.858 271.308 997.872 271.308L1007.36 271.295ZM1035.04 309.947C1035.07 309.947 1035.1 309.933 1035.13 309.91C1035.15 309.887 1035.17 309.855 1035.17 309.821L1037.19 290.674C1037.2 290.64 1037.21 290.608 1037.24 290.585C1037.26 290.562 1037.3 290.549 1037.33 290.548H1040.29C1040.31 290.548 1040.34 290.557 1040.37 290.574C1040.39 290.59 1040.41 290.613 1040.42 290.64L1045.39 303.647C1045.4 303.668 1045.4 303.691 1045.4 303.714L1044.77 309.791C1044.77 309.811 1044.77 309.83 1044.78 309.849C1044.78 309.868 1044.79 309.885 1044.81 309.9C1044.82 309.914 1044.83 309.926 1044.85 309.934C1044.87 309.942 1044.89 309.947 1044.91 309.947H1054.31C1054.34 309.947 1054.38 309.934 1054.4 309.91C1054.43 309.886 1054.44 309.854 1054.45 309.818L1055.29 301.015C1055.29 300.996 1055.29 300.976 1055.28 300.958L1051.91 290.726C1051.9 290.705 1051.9 290.682 1051.91 290.66C1051.91 290.638 1051.92 290.616 1051.93 290.598C1051.94 290.58 1051.96 290.565 1051.98 290.555C1052 290.545 1052.02 290.54 1052.05 290.541L1056.25 290.578C1056.28 290.578 1056.31 290.565 1056.34 290.542C1056.37 290.519 1056.38 290.487 1056.39 290.452L1059.43 261.77C1059.43 261.751 1059.43 261.731 1059.42 261.712C1059.42 261.694 1059.41 261.676 1059.39 261.662C1059.38 261.647 1059.37 261.635 1059.35 261.627C1059.33 261.619 1059.31 261.615 1059.29 261.614L1030.62 261.617C1030.59 261.617 1030.55 261.63 1030.53 261.654C1030.5 261.677 1030.49 261.709 1030.48 261.743L1025.43 309.791C1025.43 309.811 1025.43 309.83 1025.44 309.849C1025.45 309.868 1025.46 309.885 1025.47 309.9C1025.48 309.914 1025.5 309.926 1025.52 309.934C1025.53 309.942 1025.55 309.947 1025.57 309.947H1035.04ZM1083.21 300.246C1083.19 300.246 1083.18 300.243 1083.17 300.238C1083.15 300.232 1083.14 300.223 1083.13 300.213C1083.12 300.202 1083.11 300.189 1083.11 300.175C1083.1 300.162 1083.1 300.147 1083.1 300.133L1087.14 261.723C1087.15 261.709 1087.14 261.694 1087.14 261.68C1087.14 261.667 1087.13 261.654 1087.12 261.643C1087.11 261.633 1087.1 261.624 1087.08 261.618C1087.07 261.612 1087.06 261.609 1087.04 261.609L1077.64 261.612C1077.61 261.612 1077.59 261.621 1077.57 261.639C1077.55 261.656 1077.54 261.68 1077.54 261.706L1072.47 309.833C1072.47 309.848 1072.47 309.862 1072.48 309.876C1072.48 309.89 1072.49 309.902 1072.5 309.913C1072.51 309.924 1072.52 309.932 1072.53 309.938C1072.55 309.944 1072.56 309.947 1072.58 309.947H1101.32C1101.35 309.947 1101.37 309.938 1101.39 309.921C1101.41 309.904 1101.42 309.881 1101.43 309.855L1102.48 300.362C1102.48 300.348 1102.48 300.333 1102.47 300.319C1102.47 300.305 1102.46 300.292 1102.45 300.281C1102.44 300.27 1102.43 300.261 1102.41 300.255C1102.4 300.249 1102.39 300.246 1102.37 300.246H1083.21ZM1149.39 261.76C1149.39 261.741 1149.39 261.722 1149.38 261.704C1149.38 261.685 1149.37 261.669 1149.36 261.654C1149.34 261.64 1149.33 261.629 1149.31 261.621C1149.29 261.613 1149.27 261.609 1149.25 261.609L1139.92 261.612C1139.89 261.612 1139.85 261.624 1139.83 261.646C1139.8 261.669 1139.79 261.7 1139.78 261.733L1134.72 309.796C1134.72 309.815 1134.72 309.835 1134.73 309.853C1134.73 309.871 1134.74 309.888 1134.76 309.902C1134.77 309.916 1134.78 309.928 1134.8 309.935C1134.82 309.943 1134.84 309.947 1134.86 309.947H1144.2C1144.24 309.947 1144.27 309.935 1144.29 309.913C1144.32 309.89 1144.33 309.859 1144.34 309.826L1149.39 261.76ZM1148.54 309.826C1148.54 309.841 1148.54 309.857 1148.54 309.871C1148.55 309.886 1148.55 309.899 1148.56 309.911C1148.57 309.922 1148.59 309.931 1148.6 309.938C1148.61 309.944 1148.63 309.947 1148.65 309.947H1177.37C1177.4 309.947 1177.42 309.937 1177.44 309.92C1177.46 309.902 1177.48 309.877 1177.48 309.851L1182.54 261.735C1182.55 261.72 1182.54 261.705 1182.54 261.69C1182.54 261.675 1182.53 261.662 1182.52 261.65C1182.51 261.639 1182.49 261.63 1182.48 261.624C1182.47 261.617 1182.45 261.614 1182.44 261.614L1153.7 261.617C1153.68 261.617 1153.65 261.626 1153.63 261.644C1153.61 261.662 1153.6 261.687 1153.6 261.713L1148.54 309.826ZM1195.54 271.406C1195.55 271.38 1195.56 271.355 1195.58 271.337C1195.6 271.318 1195.62 271.308 1195.65 271.308L1205.09 271.295C1205.11 271.295 1205.12 271.298 1205.14 271.305C1205.15 271.311 1205.16 271.32 1205.17 271.332C1205.18 271.344 1205.19 271.357 1205.2 271.372C1205.2 271.387 1205.2 271.403 1205.2 271.419L1201.16 309.823C1201.16 309.839 1201.16 309.855 1201.16 309.87C1201.17 309.885 1201.17 309.898 1201.19 309.91C1201.2 309.922 1201.21 309.931 1201.22 309.937C1201.24 309.944 1201.25 309.947 1201.27 309.947H1210.59C1210.61 309.947 1210.64 309.937 1210.66 309.919C1210.68 309.901 1210.69 309.875 1210.7 309.848L1215.76 261.738C1215.76 261.722 1215.76 261.707 1215.76 261.692C1215.75 261.677 1215.74 261.663 1215.73 261.651C1215.72 261.64 1215.71 261.63 1215.7 261.624C1215.68 261.618 1215.67 261.614 1215.65 261.614L1186.92 261.617C1186.9 261.617 1186.87 261.627 1186.85 261.645C1186.83 261.663 1186.82 261.688 1186.81 261.716L1181.75 309.823C1181.75 309.839 1181.75 309.855 1181.76 309.87C1181.76 309.885 1181.77 309.898 1181.78 309.91C1181.79 309.922 1181.8 309.931 1181.82 309.937C1181.83 309.944 1181.85 309.947 1181.86 309.947H1191.39C1191.42 309.947 1191.44 309.937 1191.46 309.919C1191.48 309.901 1191.5 309.875 1191.5 309.848L1195.54 271.406ZM1214.99 309.809C1214.99 309.826 1214.99 309.843 1214.99 309.859C1215 309.875 1215.01 309.89 1215.02 309.903C1215.03 309.916 1215.04 309.926 1215.06 309.933C1215.08 309.94 1215.09 309.944 1215.11 309.944L1224.48 309.952C1224.51 309.952 1224.54 309.941 1224.56 309.92C1224.58 309.9 1224.6 309.871 1224.6 309.841L1229.65 261.743C1229.66 261.726 1229.65 261.708 1229.65 261.692C1229.64 261.675 1229.63 261.66 1229.62 261.647C1229.61 261.635 1229.6 261.624 1229.58 261.617C1229.56 261.61 1229.55 261.607 1229.53 261.607L1220.17 261.612C1220.14 261.612 1220.11 261.623 1220.09 261.644C1220.06 261.664 1220.05 261.693 1220.05 261.723L1214.99 309.809ZM992.679 276.04C992.707 276.041 992.733 276.031 992.753 276.012C992.773 275.994 992.786 275.969 992.788 275.942L993.235 271.421C993.237 271.406 993.235 271.391 993.23 271.377C993.225 271.362 993.218 271.349 993.207 271.338C993.197 271.327 993.185 271.318 993.171 271.312C993.157 271.306 993.142 271.303 993.127 271.303L977.381 271.3C977.354 271.3 977.328 271.31 977.308 271.328C977.288 271.345 977.275 271.37 977.272 271.397L976.751 275.927C976.749 275.942 976.75 275.957 976.755 275.972C976.759 275.986 976.767 276 976.777 276.011C976.787 276.022 976.799 276.031 976.813 276.038C976.827 276.044 976.842 276.048 976.857 276.048L992.679 276.04ZM991.708 285.744C991.736 285.744 991.763 285.733 991.783 285.715C991.804 285.696 991.817 285.67 991.819 285.642L992.264 281.11C992.266 281.094 992.264 281.079 992.259 281.064C992.254 281.049 992.246 281.036 992.235 281.024C992.225 281.013 992.212 281.004 992.198 280.998C992.184 280.992 992.168 280.988 992.153 280.988L979.546 280.993C979.518 280.993 979.491 281.004 979.471 281.022C979.45 281.041 979.437 281.067 979.435 281.095L978.992 285.618C978.991 285.633 978.993 285.648 978.998 285.663C979.003 285.678 979.011 285.691 979.021 285.703C979.032 285.714 979.044 285.723 979.058 285.729C979.073 285.736 979.088 285.739 979.103 285.739L991.708 285.744ZM981.825 290.615C981.787 290.615 981.751 290.629 981.723 290.654C981.695 290.679 981.678 290.713 981.674 290.751L981.222 295.207C981.219 295.228 981.222 295.249 981.228 295.269C981.235 295.288 981.245 295.307 981.259 295.322C981.273 295.338 981.29 295.35 981.309 295.359C981.328 295.368 981.349 295.372 981.37 295.373L990.645 295.392C990.682 295.392 990.718 295.378 990.745 295.353C990.773 295.328 990.79 295.293 990.794 295.256L991.234 290.776C991.236 290.755 991.233 290.734 991.227 290.714C991.22 290.694 991.21 290.676 991.196 290.66C991.182 290.645 991.165 290.632 991.146 290.623C991.127 290.615 991.106 290.61 991.085 290.61L981.825 290.615ZM984.049 300.313C984.012 300.313 983.977 300.326 983.95 300.35C983.922 300.374 983.905 300.408 983.901 300.444L983.404 304.9C983.401 304.921 983.403 304.942 983.41 304.962C983.416 304.982 983.427 305.001 983.441 305.016C983.455 305.032 983.472 305.045 983.491 305.053C983.51 305.062 983.531 305.066 983.552 305.066H989.6C989.637 305.066 989.672 305.052 989.7 305.028C989.727 305.003 989.745 304.969 989.748 304.932L990.2 300.481C990.203 300.461 990.2 300.44 990.194 300.42C990.188 300.401 990.177 300.383 990.163 300.367C990.15 300.352 990.133 300.34 990.114 300.331C990.096 300.323 990.075 300.318 990.055 300.318L984.049 300.313ZM1036.4 342.015C1036.42 340.888 1036.86 338.463 1038.23 338.463C1043.11 338.463 1047.98 338.463 1052.84 338.463C1052.88 338.463 1052.92 338.447 1052.95 338.417C1052.97 338.388 1052.99 338.349 1052.99 338.307L1052.99 332.314C1052.99 332.297 1052.99 332.28 1052.98 332.265C1052.98 332.249 1052.97 332.235 1052.96 332.223C1052.94 332.211 1052.93 332.202 1052.91 332.195C1052.9 332.189 1052.88 332.185 1052.87 332.185C1047.78 332.189 1042.68 332.189 1037.56 332.185C1036.5 332.185 1035.71 332.266 1035.22 332.428C1033.33 333.043 1032.03 334.963 1031.56 336.815C1031.4 337.459 1031.32 338.584 1031.31 340.191C1031.3 343.217 1031.3 346.245 1031.31 349.273C1031.32 350.715 1031.4 351.759 1031.57 352.405C1032.11 354.528 1033.65 356.596 1035.89 356.997C1036.09 357.031 1037.16 357.049 1039.1 357.051C1043.71 357.054 1048.31 357.055 1052.89 357.054C1052.93 357.054 1052.97 357.038 1053 357.011C1053.03 356.984 1053.04 356.946 1053.04 356.908L1053.05 350.981C1053.05 350.952 1053.04 350.925 1053.02 350.904C1053 350.884 1052.97 350.872 1052.94 350.872C1048.54 350.872 1044.13 350.872 1039.7 350.872C1038.81 350.872 1038.28 350.851 1038.12 350.808C1036.74 350.447 1036.4 348.344 1036.39 347.143C1036.37 345.434 1036.37 343.725 1036.4 342.015ZM1067.57 350.68C1070.23 350.652 1072.9 350.649 1075.56 350.672C1076.23 350.677 1076.59 350.952 1076.97 351.441C1077.17 351.7 1077.27 352.054 1077.27 352.504C1077.28 353.972 1077.28 355.443 1077.27 356.918C1077.27 356.954 1077.28 356.988 1077.31 357.014C1077.33 357.039 1077.37 357.054 1077.4 357.054L1082.14 357.056C1082.16 357.056 1082.19 357.046 1082.2 357.028C1082.22 357.01 1082.23 356.985 1082.23 356.96C1082.25 355.042 1082.25 353.121 1082.24 351.199C1082.23 349.404 1081.53 348.495 1080.51 347.148C1080.45 347.067 1080.44 346.983 1080.49 346.896C1081.07 345.912 1082.18 344.4 1082.22 343.315C1082.27 342.179 1082.28 340.261 1082.24 337.561C1082.22 336.413 1082.11 335.567 1081.89 335.025C1081.36 333.693 1080.03 332.198 1078.51 332.195C1073.23 332.181 1067.94 332.18 1062.64 332.193C1062.56 332.195 1062.52 332.236 1062.52 332.316L1062.53 338.122C1062.53 338.201 1062.57 338.241 1062.65 338.241C1066.94 338.25 1071.22 338.252 1075.51 338.246C1076.19 338.243 1076.76 338.208 1077.03 338.804C1077.62 340.112 1077.7 341.478 1077.26 342.902C1077.03 343.648 1076.54 344.358 1075.74 344.36C1071.35 344.367 1066.99 344.367 1062.64 344.363C1062.56 344.363 1062.52 344.402 1062.52 344.481L1062.53 356.972C1062.53 356.994 1062.54 357.014 1062.55 357.03C1062.57 357.045 1062.59 357.054 1062.61 357.054L1067.33 357.049C1067.36 357.049 1067.4 357.034 1067.42 357.009C1067.45 356.983 1067.46 356.949 1067.46 356.913V350.793C1067.46 350.718 1067.5 350.68 1067.57 350.68ZM1095.56 341.792C1095.67 340.643 1096.13 338.71 1097.67 338.678C1100.07 338.629 1102.47 338.608 1104.87 338.616C1106.94 338.624 1107.6 339.951 1107.72 341.8C1107.72 341.84 1107.73 341.877 1107.76 341.905C1107.79 341.933 1107.83 341.948 1107.87 341.948H1112.55C1112.63 341.948 1112.67 341.911 1112.67 341.837C1112.76 339.555 1112.44 337.409 1111.7 335.401C1111.16 333.911 1109.67 332.193 1107.93 332.19C1104.08 332.184 1100.23 332.184 1096.38 332.19C1095.42 332.192 1094.73 332.274 1094.29 332.435C1091.07 333.636 1090.62 338.947 1090.59 341.785C1090.59 341.829 1090.61 341.871 1090.64 341.902C1090.67 341.933 1090.71 341.95 1090.75 341.95L1095.38 341.948C1095.43 341.948 1095.47 341.932 1095.5 341.904C1095.53 341.875 1095.55 341.835 1095.56 341.792ZM1143.87 332.339C1143.87 332.299 1143.85 332.26 1143.82 332.232C1143.8 332.204 1143.76 332.188 1143.72 332.188H1138.93C1138.89 332.188 1138.85 332.204 1138.82 332.232C1138.79 332.26 1138.78 332.299 1138.78 332.339V347.425C1138.78 347.465 1138.79 347.503 1138.82 347.531C1138.85 347.56 1138.89 347.575 1138.93 347.575H1143.72C1143.76 347.575 1143.8 347.56 1143.82 347.531C1143.85 347.503 1143.87 347.465 1143.87 347.425V332.339ZM1158.33 350.677C1161.48 350.652 1164.63 350.65 1167.78 350.67C1168.8 350.676 1169.51 350.616 1169.91 350.489C1172.09 349.79 1172.93 347.558 1172.93 345.462C1172.94 342.666 1172.95 339.869 1172.97 337.072C1172.98 335.206 1171.98 333.107 1170.15 332.42C1169.73 332.264 1169.07 332.185 1168.15 332.185C1163.19 332.187 1158.26 332.189 1153.35 332.19C1153.32 332.19 1153.28 332.203 1153.26 332.227C1153.24 332.25 1153.22 332.281 1153.22 332.314V338.181C1153.22 338.198 1153.23 338.215 1153.24 338.227C1153.25 338.239 1153.27 338.246 1153.29 338.246C1157.78 338.244 1162.29 338.245 1166.79 338.248C1168.38 338.251 1168.29 341.201 1168.2 342.225C1168.11 343.305 1168.02 344.343 1166.75 344.34C1162.27 344.324 1157.79 344.32 1153.32 344.328C1153.3 344.328 1153.27 344.338 1153.25 344.357C1153.24 344.375 1153.23 344.401 1153.23 344.427V356.95C1153.23 356.976 1153.24 357.001 1153.25 357.02C1153.27 357.038 1153.3 357.049 1153.32 357.049L1158 357.054C1158.04 357.054 1158.08 357.036 1158.11 357.004C1158.14 356.973 1158.16 356.93 1158.16 356.886V350.845C1158.16 350.735 1158.22 350.679 1158.33 350.677ZM1129 350.776C1127.52 350.766 1127.2 347.842 1127.19 346.723C1127.18 341.951 1127.18 337.182 1127.19 332.415C1127.19 332.402 1127.19 332.388 1127.18 332.376C1127.18 332.363 1127.17 332.352 1127.16 332.342C1127.15 332.332 1127.14 332.325 1127.12 332.319C1127.11 332.314 1127.1 332.311 1127.08 332.311L1122.26 332.314C1122.18 332.314 1122.14 332.358 1122.14 332.445C1122.13 338.134 1122.13 343.824 1122.14 349.513C1122.14 351.836 1122.39 353.334 1123.66 355.074C1124.65 356.423 1125.87 357.097 1127.33 357.096C1132.8 357.089 1138.26 357.087 1143.7 357.091C1143.73 357.091 1143.76 357.078 1143.79 357.055C1143.81 357.031 1143.82 357 1143.82 356.967L1143.81 350.981C1143.81 350.96 1143.81 350.939 1143.8 350.919C1143.79 350.899 1143.78 350.881 1143.76 350.866C1143.75 350.851 1143.73 350.839 1143.71 350.83C1143.69 350.822 1143.67 350.818 1143.65 350.818C1138.78 350.828 1133.9 350.814 1129 350.776ZM1053.05 342.442C1053.05 342.405 1053.03 342.37 1053.01 342.344C1052.98 342.318 1052.95 342.304 1052.91 342.304H1048.09C1048.05 342.304 1048.01 342.318 1047.99 342.344C1047.96 342.37 1047.95 342.405 1047.95 342.442V349.254C1047.95 349.29 1047.96 349.326 1047.99 349.351C1048.01 349.377 1048.05 349.392 1048.09 349.392H1052.91C1052.95 349.392 1052.98 349.377 1053.01 349.351C1053.03 349.326 1053.05 349.29 1053.05 349.254V342.442ZM1098.1 350.645C1096.23 350.633 1095.67 348.952 1095.57 347.449C1095.57 347.417 1095.55 347.386 1095.53 347.363C1095.51 347.341 1095.48 347.328 1095.44 347.328H1090.69C1090.63 347.328 1090.6 347.359 1090.6 347.42C1090.58 350.257 1091.14 355.722 1094.31 356.824C1094.71 356.964 1095.31 357.036 1096.12 357.039C1099.76 357.059 1103.4 357.059 1107.05 357.041C1108.04 357.036 1108.77 356.923 1109.25 356.703C1112.24 355.329 1112.72 350.252 1112.7 347.457C1112.7 347.423 1112.68 347.39 1112.66 347.366C1112.63 347.342 1112.6 347.328 1112.57 347.328H1107.87C1107.79 347.328 1107.75 347.367 1107.73 347.444C1107.49 349.162 1107.07 350.655 1104.99 350.66C1102.7 350.665 1100.4 350.66 1098.1 350.645Z" fill="white"/>
<path d="M1143.63 147.105C1143.7 147.225 1143.8 147.286 1143.94 147.286L1167.68 147.273C1167.71 147.273 1167.74 147.286 1167.76 147.309C1167.79 147.333 1167.8 147.364 1167.8 147.397C1167.8 148.366 1167.79 149.351 1167.78 150.353C1167.68 157.307 1161.87 162.04 1155.13 162.06C1148.71 162.082 1142.29 162.091 1135.88 162.09C1135.84 162.09 1135.8 162.077 1135.77 162.053C1135.73 162.029 1135.71 161.995 1135.7 161.956C1134.29 157.527 1132.2 153.433 1129.43 149.673C1128.62 148.567 1127.92 147.716 1127.35 147.12C1118.46 137.916 1105.4 134.187 1092.97 137.817C1092.42 137.977 1091.88 138.057 1091.34 138.057C1083.7 138.059 1076.07 138.059 1068.46 138.059C1068.44 138.06 1068.42 138.055 1068.41 138.045C1068.39 138.035 1068.38 138.021 1068.37 138.004C1068.37 137.987 1068.37 137.969 1068.37 137.951C1068.37 137.933 1068.38 137.917 1068.39 137.904C1090.6 114.63 1127.51 119.726 1143.63 147.105Z" fill="#A3A073"/>
<path d="M1134.97 186.192C1131.72 186.174 1128.43 186.172 1125.1 186.187C1122.14 186.2 1119.58 185.383 1117.44 183.735C1115.11 181.946 1113.68 179.559 1113.16 176.575C1112.9 175.058 1112.97 173.169 1112.97 171.491C1112.97 171.48 1112.97 171.468 1112.98 171.457C1112.98 171.446 1112.99 171.437 1113 171.428C1113.01 171.42 1113.02 171.414 1113.03 171.409C1113.04 171.405 1113.05 171.402 1113.06 171.402L1150.52 171.4C1150.63 171.4 1150.68 171.452 1150.68 171.556C1150.82 182.175 1148.03 191.828 1142.32 200.514C1133.62 213.719 1119.24 221.811 1103.52 222.11C1103.49 222.111 1103.46 222.123 1103.44 222.146C1103.41 222.168 1103.4 222.198 1103.4 222.229C1103.4 224.563 1103.4 226.905 1103.4 229.253C1103.39 234.752 1101.55 241.496 1096.65 244.719C1094.32 246.252 1092.33 245.955 1089.8 246.017C1089.78 246.017 1089.75 246.012 1089.73 246.003C1089.7 245.993 1089.68 245.979 1089.66 245.961C1089.65 245.943 1089.63 245.922 1089.62 245.898C1089.61 245.875 1089.61 245.85 1089.61 245.824L1089.6 220.363C1089.6 220.277 1089.56 220.221 1089.48 220.195C1068.72 213.89 1055.21 194.491 1054.78 173.11C1054.78 173.085 1054.78 173.059 1054.79 173.036C1054.8 173.012 1054.82 172.99 1054.84 172.972C1054.85 172.954 1054.87 172.94 1054.9 172.93C1054.92 172.92 1054.95 172.915 1054.97 172.915L1067.64 172.917C1067.67 172.917 1067.69 172.927 1067.71 172.945C1067.73 172.963 1067.74 172.988 1067.74 173.014C1068.04 187.46 1076.13 200.252 1089.42 206.08C1089.44 206.089 1089.46 206.093 1089.48 206.091C1089.5 206.089 1089.52 206.082 1089.54 206.07C1089.56 206.058 1089.58 206.042 1089.59 206.022C1089.6 206.003 1089.6 205.981 1089.6 205.959L1089.61 162.169C1089.61 162.157 1089.6 162.145 1089.6 162.133C1089.59 162.122 1089.59 162.112 1089.58 162.103C1089.57 162.095 1089.56 162.088 1089.55 162.084C1089.54 162.079 1089.52 162.077 1089.51 162.077C1078.38 162.089 1067.24 162.1 1056.09 162.112C1052.48 162.115 1049.03 161.396 1045.73 159.954C1040.73 157.765 1036.2 153.289 1036.46 147.402C1036.47 147.319 1036.51 147.278 1036.59 147.278C1060.2 147.278 1083.82 147.278 1107.43 147.278C1108.66 147.278 1109.74 147.585 1110.67 148.2C1116.2 151.85 1121.62 156.138 1125.17 161.87C1125.18 161.891 1125.19 161.916 1125.19 161.942C1125.19 161.968 1125.19 161.993 1125.17 162.016C1125.16 162.038 1125.14 162.057 1125.12 162.07C1125.1 162.083 1125.07 162.09 1125.05 162.09L1103.47 162.085C1103.46 162.084 1103.45 162.086 1103.44 162.09C1103.43 162.093 1103.43 162.099 1103.42 162.106C1103.41 162.113 1103.41 162.121 1103.4 162.13C1103.4 162.139 1103.4 162.149 1103.4 162.159L1103.39 208.648C1103.39 208.667 1103.4 208.687 1103.41 208.705C1103.41 208.723 1103.43 208.739 1103.44 208.753C1103.45 208.766 1103.47 208.777 1103.49 208.784C1103.51 208.791 1103.53 208.794 1103.55 208.794C1117.74 208.312 1129.68 199.306 1135.11 186.414C1135.12 186.39 1135.13 186.363 1135.12 186.337C1135.12 186.31 1135.11 186.285 1135.1 186.263C1135.08 186.241 1135.06 186.223 1135.04 186.21C1135.02 186.198 1134.99 186.192 1134.97 186.192Z" fill="#A3A073"/>
<path d="M1058.66 309.814L1063.72 261.723C1063.72 261.693 1063.73 261.666 1063.76 261.645C1063.78 261.625 1063.81 261.614 1063.84 261.614L1073.21 261.612C1073.23 261.612 1073.24 261.616 1073.26 261.623C1073.27 261.63 1073.29 261.64 1073.3 261.653C1073.31 261.665 1073.32 261.68 1073.32 261.696C1073.33 261.712 1073.33 261.729 1073.33 261.745L1068.27 309.838C1068.27 309.868 1068.25 309.896 1068.23 309.916C1068.21 309.936 1068.18 309.947 1068.15 309.947H1058.78C1058.77 309.947 1058.75 309.943 1058.73 309.936C1058.72 309.929 1058.7 309.919 1058.69 309.906C1058.68 309.894 1058.67 309.879 1058.67 309.863C1058.66 309.847 1058.66 309.83 1058.66 309.814Z" fill="#A3A073"/>
<path d="M1133.6 300.387L1132.54 309.836C1132.54 309.867 1132.52 309.895 1132.5 309.916C1132.48 309.936 1132.45 309.947 1132.42 309.947L1103.71 309.95C1103.7 309.95 1103.68 309.946 1103.66 309.939C1103.65 309.932 1103.63 309.921 1103.62 309.908C1103.61 309.895 1103.6 309.88 1103.59 309.863C1103.59 309.846 1103.59 309.829 1103.59 309.811L1108.65 261.731C1108.65 261.699 1108.67 261.67 1108.69 261.649C1108.72 261.628 1108.75 261.617 1108.78 261.617L1118.13 261.607C1118.15 261.607 1118.17 261.611 1118.18 261.618C1118.2 261.625 1118.21 261.635 1118.23 261.648C1118.24 261.661 1118.25 261.677 1118.25 261.693C1118.26 261.71 1118.26 261.728 1118.26 261.745L1114.22 300.108C1114.22 300.126 1114.23 300.143 1114.23 300.16C1114.24 300.177 1114.25 300.192 1114.26 300.205C1114.27 300.218 1114.28 300.229 1114.3 300.236C1114.32 300.243 1114.33 300.247 1114.35 300.246H1133.47C1133.49 300.246 1133.51 300.25 1133.52 300.257C1133.54 300.264 1133.55 300.275 1133.57 300.288C1133.58 300.302 1133.59 300.317 1133.59 300.334C1133.6 300.352 1133.6 300.37 1133.6 300.387Z" fill="#A3A073"/>
<path d="M975.147 261.614L994.157 261.612C994.174 261.612 994.191 261.615 994.207 261.622C994.222 261.629 994.236 261.639 994.248 261.652C994.259 261.664 994.268 261.679 994.273 261.695C994.278 261.711 994.28 261.729 994.278 261.745L993.829 266.249C993.826 266.278 993.812 266.305 993.79 266.325C993.768 266.346 993.74 266.357 993.71 266.357L974.707 266.355C974.69 266.355 974.673 266.351 974.657 266.345C974.642 266.338 974.628 266.328 974.616 266.315C974.605 266.302 974.596 266.288 974.591 266.271C974.586 266.255 974.584 266.238 974.586 266.221L975.028 261.723C975.031 261.694 975.045 261.666 975.067 261.646C975.088 261.626 975.117 261.615 975.147 261.614Z" fill="#A3A073"/>
<path d="M1007.35 271.295L997.872 271.308C997.857 271.308 997.843 271.305 997.83 271.299C997.816 271.293 997.805 271.285 997.795 271.274C997.785 271.263 997.778 271.25 997.773 271.237C997.768 271.223 997.767 271.208 997.768 271.194L998.759 261.711C998.762 261.685 998.774 261.661 998.793 261.644C998.812 261.626 998.837 261.617 998.863 261.617H1027.61C1027.63 261.617 1027.64 261.62 1027.65 261.626C1027.67 261.631 1027.68 261.64 1027.69 261.651C1027.7 261.661 1027.71 261.674 1027.71 261.688C1027.71 261.702 1027.72 261.716 1027.72 261.731L1026.71 271.211C1026.71 271.237 1026.7 271.261 1026.68 271.278C1026.66 271.296 1026.64 271.305 1026.61 271.305L1017.31 271.303C1017.28 271.303 1017.26 271.312 1017.24 271.329C1017.22 271.347 1017.21 271.371 1017.2 271.397L1013.16 309.853C1013.15 309.879 1013.14 309.903 1013.12 309.92C1013.1 309.938 1013.08 309.947 1013.05 309.947H1003.51C1003.5 309.947 1003.48 309.944 1003.47 309.938C1003.46 309.932 1003.44 309.924 1003.43 309.913C1003.42 309.902 1003.42 309.89 1003.41 309.876C1003.41 309.862 1003.41 309.848 1003.41 309.833L1007.46 271.409C1007.46 271.395 1007.46 271.38 1007.45 271.366C1007.45 271.352 1007.44 271.34 1007.43 271.329C1007.42 271.318 1007.41 271.31 1007.4 271.304C1007.38 271.298 1007.37 271.295 1007.35 271.295Z" fill="#A3A073"/>
<path d="M1035.04 309.947H1025.57C1025.55 309.947 1025.53 309.942 1025.52 309.934C1025.5 309.926 1025.48 309.914 1025.47 309.9C1025.46 309.885 1025.45 309.868 1025.44 309.849C1025.43 309.831 1025.43 309.811 1025.43 309.791L1030.48 261.743C1030.49 261.709 1030.5 261.677 1030.53 261.654C1030.55 261.63 1030.59 261.617 1030.62 261.617L1059.29 261.614C1059.31 261.615 1059.33 261.619 1059.35 261.627C1059.37 261.635 1059.38 261.647 1059.39 261.662C1059.41 261.676 1059.42 261.694 1059.42 261.712C1059.43 261.731 1059.43 261.751 1059.43 261.77L1056.39 290.452C1056.38 290.487 1056.37 290.519 1056.34 290.542C1056.31 290.565 1056.28 290.578 1056.25 290.578L1052.05 290.541C1052.02 290.54 1052 290.545 1051.98 290.556C1051.96 290.566 1051.94 290.58 1051.93 290.598C1051.92 290.617 1051.91 290.638 1051.91 290.66C1051.9 290.682 1051.9 290.705 1051.91 290.726L1055.28 300.958C1055.29 300.976 1055.29 300.996 1055.29 301.015L1054.45 309.818C1054.44 309.854 1054.43 309.886 1054.4 309.91C1054.38 309.934 1054.34 309.947 1054.31 309.947H1044.91C1044.89 309.947 1044.87 309.942 1044.85 309.934C1044.83 309.926 1044.82 309.914 1044.81 309.9C1044.79 309.885 1044.78 309.868 1044.78 309.849C1044.77 309.831 1044.77 309.811 1044.77 309.791L1045.4 303.714C1045.4 303.691 1045.4 303.668 1045.39 303.647L1040.42 290.64C1040.41 290.613 1040.39 290.59 1040.36 290.574C1040.34 290.557 1040.31 290.548 1040.29 290.548H1037.33C1037.3 290.549 1037.26 290.562 1037.24 290.585C1037.21 290.608 1037.2 290.64 1037.19 290.674L1035.17 309.821C1035.17 309.855 1035.15 309.887 1035.13 309.91C1035.1 309.934 1035.07 309.947 1035.04 309.947ZM1038.24 280.722C1038.23 280.738 1038.24 280.755 1038.24 280.77C1038.25 280.786 1038.25 280.8 1038.27 280.813C1038.28 280.825 1038.29 280.835 1038.3 280.842C1038.32 280.849 1038.34 280.852 1038.35 280.853L1047.66 280.85C1047.69 280.85 1047.72 280.839 1047.74 280.82C1047.76 280.8 1047.78 280.773 1047.78 280.744L1048.68 271.431C1048.68 271.415 1048.68 271.398 1048.67 271.382C1048.67 271.366 1048.66 271.352 1048.65 271.339C1048.64 271.327 1048.62 271.317 1048.61 271.31C1048.59 271.304 1048.58 271.3 1048.56 271.3H1039.33C1039.3 271.3 1039.28 271.311 1039.25 271.331C1039.23 271.35 1039.22 271.377 1039.21 271.407L1038.24 280.722Z" fill="#A3A073"/>
<path d="M1083.21 300.246H1102.37C1102.39 300.246 1102.4 300.249 1102.41 300.255C1102.43 300.261 1102.44 300.27 1102.45 300.281C1102.46 300.292 1102.47 300.305 1102.47 300.319C1102.48 300.333 1102.48 300.348 1102.48 300.363L1101.43 309.856C1101.42 309.881 1101.41 309.904 1101.39 309.921C1101.37 309.938 1101.35 309.947 1101.32 309.947H1072.58C1072.56 309.947 1072.55 309.944 1072.53 309.938C1072.52 309.932 1072.51 309.924 1072.5 309.913C1072.49 309.902 1072.48 309.89 1072.48 309.876C1072.47 309.862 1072.47 309.848 1072.47 309.833L1077.54 261.706C1077.54 261.68 1077.55 261.656 1077.57 261.639C1077.59 261.621 1077.61 261.612 1077.64 261.612L1087.04 261.609C1087.06 261.609 1087.07 261.612 1087.08 261.618C1087.1 261.624 1087.11 261.633 1087.12 261.643C1087.13 261.654 1087.14 261.667 1087.14 261.68C1087.14 261.694 1087.15 261.709 1087.14 261.723L1083.1 300.133C1083.1 300.147 1083.1 300.162 1083.11 300.175C1083.11 300.189 1083.12 300.202 1083.13 300.213C1083.14 300.223 1083.15 300.232 1083.17 300.238C1083.18 300.243 1083.19 300.246 1083.21 300.246Z" fill="#A3A073"/>
<path d="M1149.39 261.76L1144.34 309.826C1144.33 309.859 1144.32 309.89 1144.29 309.913C1144.27 309.935 1144.24 309.947 1144.2 309.947H1134.86C1134.84 309.947 1134.82 309.943 1134.8 309.935C1134.78 309.928 1134.77 309.916 1134.76 309.902C1134.74 309.888 1134.73 309.871 1134.73 309.853C1134.72 309.835 1134.72 309.815 1134.72 309.796L1139.78 261.733C1139.79 261.7 1139.8 261.669 1139.83 261.646C1139.85 261.624 1139.88 261.612 1139.92 261.612L1149.25 261.609C1149.27 261.609 1149.29 261.613 1149.31 261.621C1149.33 261.629 1149.34 261.64 1149.36 261.654C1149.37 261.669 1149.38 261.685 1149.38 261.704C1149.39 261.722 1149.39 261.741 1149.39 261.76Z" fill="#A3A073"/>
<path d="M1148.54 309.826L1153.6 261.713C1153.6 261.687 1153.61 261.662 1153.63 261.644C1153.65 261.626 1153.68 261.617 1153.7 261.617L1182.44 261.614C1182.45 261.614 1182.47 261.618 1182.48 261.624C1182.49 261.63 1182.51 261.639 1182.52 261.651C1182.53 261.662 1182.54 261.675 1182.54 261.69C1182.54 261.705 1182.55 261.72 1182.54 261.736L1177.48 309.851C1177.48 309.877 1177.46 309.902 1177.44 309.92C1177.42 309.937 1177.4 309.947 1177.37 309.947H1148.65C1148.63 309.947 1148.61 309.944 1148.6 309.938C1148.59 309.931 1148.57 309.922 1148.56 309.911C1148.55 309.899 1148.55 309.886 1148.54 309.871C1148.54 309.857 1148.53 309.841 1148.54 309.826ZM1159.31 300.113C1159.3 300.13 1159.31 300.146 1159.31 300.162C1159.32 300.178 1159.32 300.193 1159.33 300.206C1159.35 300.218 1159.36 300.228 1159.38 300.235C1159.39 300.242 1159.41 300.246 1159.42 300.246H1168.7C1168.73 300.247 1168.76 300.235 1168.79 300.215C1168.81 300.195 1168.82 300.168 1168.83 300.138L1171.78 271.434C1171.78 271.417 1171.78 271.4 1171.77 271.384C1171.77 271.368 1171.76 271.353 1171.75 271.341C1171.74 271.328 1171.72 271.318 1171.71 271.311C1171.69 271.304 1171.67 271.3 1171.66 271.3H1162.45C1162.42 271.3 1162.39 271.311 1162.36 271.331C1162.34 271.351 1162.33 271.379 1162.33 271.409L1159.31 300.113Z" fill="#A3A073"/>
<path d="M1195.54 271.407L1191.5 309.848C1191.5 309.875 1191.48 309.901 1191.46 309.919C1191.44 309.937 1191.41 309.947 1191.39 309.947H1181.86C1181.85 309.947 1181.83 309.944 1181.82 309.938C1181.8 309.931 1181.79 309.922 1181.78 309.91C1181.77 309.899 1181.76 309.885 1181.76 309.87C1181.75 309.855 1181.75 309.839 1181.75 309.823L1186.81 261.716C1186.82 261.688 1186.83 261.663 1186.85 261.645C1186.87 261.627 1186.9 261.617 1186.92 261.617L1215.65 261.614C1215.67 261.614 1215.68 261.618 1215.7 261.624C1215.71 261.63 1215.72 261.64 1215.73 261.651C1215.74 261.663 1215.75 261.677 1215.76 261.692C1215.76 261.707 1215.76 261.722 1215.76 261.738L1210.7 309.848C1210.69 309.875 1210.68 309.901 1210.66 309.919C1210.64 309.937 1210.61 309.947 1210.59 309.947H1201.27C1201.25 309.947 1201.24 309.944 1201.22 309.938C1201.21 309.931 1201.2 309.922 1201.19 309.91C1201.17 309.899 1201.17 309.885 1201.16 309.87C1201.16 309.855 1201.16 309.839 1201.16 309.823L1205.2 271.419C1205.2 271.403 1205.2 271.387 1205.2 271.373C1205.19 271.358 1205.18 271.344 1205.17 271.332C1205.16 271.32 1205.15 271.311 1205.14 271.305C1205.12 271.298 1205.11 271.295 1205.09 271.295L1195.65 271.308C1195.62 271.308 1195.6 271.318 1195.58 271.337C1195.56 271.355 1195.55 271.38 1195.54 271.407Z" fill="#A3A073"/>
<path d="M1214.99 309.809L1220.05 261.723C1220.05 261.693 1220.06 261.664 1220.09 261.644C1220.11 261.623 1220.14 261.612 1220.17 261.612L1229.53 261.607C1229.55 261.607 1229.56 261.611 1229.58 261.617C1229.6 261.624 1229.61 261.635 1229.62 261.648C1229.63 261.66 1229.64 261.675 1229.65 261.692C1229.65 261.708 1229.66 261.726 1229.65 261.743L1224.6 309.841C1224.6 309.871 1224.58 309.9 1224.56 309.92C1224.54 309.941 1224.51 309.952 1224.48 309.952L1215.11 309.945C1215.09 309.944 1215.07 309.94 1215.06 309.933C1215.04 309.926 1215.03 309.916 1215.02 309.903C1215.01 309.89 1215 309.875 1214.99 309.859C1214.99 309.843 1214.99 309.826 1214.99 309.809Z" fill="#A3A073"/>
<path d="M992.679 276.041L976.857 276.048C976.842 276.048 976.827 276.044 976.813 276.038C976.799 276.032 976.787 276.022 976.777 276.011C976.767 276 976.759 275.986 976.755 275.972C976.75 275.957 976.749 275.942 976.75 275.927L977.272 271.397C977.275 271.37 977.288 271.345 977.308 271.328C977.328 271.31 977.354 271.3 977.381 271.3L993.127 271.303C993.142 271.303 993.157 271.306 993.171 271.312C993.185 271.318 993.197 271.327 993.207 271.338C993.217 271.349 993.225 271.362 993.23 271.377C993.235 271.391 993.237 271.406 993.235 271.421L992.788 275.942C992.786 275.969 992.773 275.994 992.753 276.012C992.733 276.031 992.706 276.041 992.679 276.041Z" fill="#A3A073"/>
<path d="M1038.24 280.722L1039.21 271.407C1039.22 271.377 1039.23 271.35 1039.25 271.331C1039.28 271.311 1039.3 271.3 1039.33 271.3H1048.56C1048.58 271.3 1048.59 271.304 1048.61 271.31C1048.62 271.317 1048.64 271.327 1048.65 271.339C1048.66 271.352 1048.67 271.366 1048.67 271.382C1048.68 271.398 1048.68 271.415 1048.68 271.431L1047.78 280.744C1047.78 280.773 1047.76 280.8 1047.74 280.82C1047.72 280.839 1047.69 280.85 1047.66 280.85L1038.35 280.853C1038.34 280.852 1038.32 280.849 1038.3 280.842C1038.29 280.835 1038.28 280.825 1038.27 280.813C1038.25 280.8 1038.25 280.786 1038.24 280.77C1038.24 280.755 1038.23 280.738 1038.24 280.722Z" fill="white"/>
<path d="M1159.3 300.113L1162.33 271.409C1162.33 271.379 1162.34 271.351 1162.36 271.331C1162.39 271.311 1162.42 271.3 1162.45 271.3H1171.66C1171.67 271.3 1171.69 271.304 1171.71 271.311C1171.72 271.318 1171.74 271.328 1171.75 271.341C1171.76 271.353 1171.77 271.368 1171.77 271.384C1171.78 271.4 1171.78 271.417 1171.78 271.434L1168.83 300.138C1168.82 300.168 1168.81 300.195 1168.79 300.215C1168.76 300.235 1168.73 300.247 1168.7 300.246H1159.42C1159.41 300.246 1159.39 300.242 1159.37 300.235C1159.36 300.228 1159.35 300.218 1159.33 300.206C1159.32 300.193 1159.32 300.178 1159.31 300.162C1159.31 300.147 1159.3 300.13 1159.3 300.113Z" fill="white"/>
<path d="M991.708 285.744L979.103 285.739C979.088 285.739 979.073 285.736 979.058 285.729C979.044 285.723 979.031 285.714 979.021 285.703C979.011 285.691 979.003 285.678 978.998 285.663C978.993 285.649 978.991 285.633 978.992 285.618L979.435 281.095C979.437 281.067 979.45 281.041 979.47 281.022C979.491 281.004 979.518 280.993 979.546 280.993L992.153 280.988C992.168 280.988 992.184 280.992 992.198 280.998C992.212 281.004 992.225 281.013 992.235 281.024C992.246 281.036 992.254 281.049 992.259 281.064C992.264 281.079 992.265 281.094 992.264 281.11L991.819 285.642C991.817 285.67 991.804 285.696 991.783 285.715C991.763 285.733 991.736 285.744 991.708 285.744Z" fill="#A3A073"/>
<path d="M981.824 290.615L991.085 290.61C991.106 290.61 991.127 290.615 991.146 290.624C991.165 290.632 991.182 290.645 991.196 290.66C991.21 290.676 991.22 290.694 991.227 290.714C991.233 290.734 991.236 290.755 991.233 290.776L990.794 295.256C990.79 295.293 990.773 295.328 990.745 295.353C990.718 295.378 990.682 295.392 990.645 295.392L981.37 295.373C981.349 295.372 981.328 295.368 981.309 295.359C981.29 295.351 981.273 295.338 981.259 295.322C981.245 295.307 981.235 295.289 981.228 295.269C981.222 295.249 981.219 295.228 981.221 295.207L981.674 290.751C981.677 290.714 981.695 290.679 981.723 290.654C981.751 290.629 981.787 290.615 981.824 290.615Z" fill="#A3A073"/>
<path d="M984.049 300.313L990.055 300.318C990.075 300.318 990.096 300.323 990.114 300.331C990.133 300.34 990.15 300.352 990.163 300.367C990.177 300.383 990.188 300.401 990.194 300.42C990.2 300.44 990.203 300.461 990.2 300.481L989.748 304.932C989.744 304.969 989.727 305.003 989.7 305.028C989.672 305.052 989.637 305.066 989.6 305.066H983.552C983.531 305.066 983.51 305.062 983.491 305.053C983.472 305.045 983.455 305.032 983.441 305.016C983.427 305.001 983.416 304.982 983.41 304.962C983.403 304.942 983.401 304.921 983.404 304.9L983.901 300.444C983.905 300.408 983.922 300.374 983.95 300.35C983.977 300.326 984.012 300.313 984.049 300.313Z" fill="#A3A073"/>
<path d="M1038.23 338.463C1036.86 338.463 1036.42 340.888 1036.4 342.015C1036.37 343.725 1036.37 345.434 1036.39 347.143C1036.4 348.344 1036.74 350.447 1038.12 350.808C1038.28 350.851 1038.81 350.873 1039.7 350.873C1044.13 350.873 1048.54 350.873 1052.94 350.873C1052.97 350.873 1053 350.884 1053.02 350.904C1053.04 350.925 1053.05 350.952 1053.05 350.981L1053.04 356.908C1053.04 356.947 1053.03 356.984 1053 357.011C1052.97 357.038 1052.93 357.054 1052.89 357.054C1048.31 357.055 1043.71 357.055 1039.1 357.051C1037.16 357.05 1036.09 357.031 1035.89 356.997C1033.65 356.597 1032.11 354.528 1031.57 352.405C1031.4 351.759 1031.32 350.715 1031.31 349.273C1031.3 346.245 1031.3 343.217 1031.31 340.191C1031.32 338.584 1031.4 337.459 1031.56 336.815C1032.03 334.964 1033.33 333.043 1035.22 332.428C1035.71 332.266 1036.5 332.186 1037.56 332.186C1042.68 332.189 1047.78 332.189 1052.87 332.186C1052.88 332.186 1052.9 332.189 1052.91 332.195C1052.93 332.202 1052.94 332.211 1052.96 332.223C1052.97 332.235 1052.98 332.249 1052.98 332.265C1052.99 332.28 1052.99 332.297 1052.99 332.314L1052.99 338.307C1052.99 338.349 1052.97 338.388 1052.95 338.418C1052.92 338.447 1052.88 338.463 1052.84 338.463C1047.98 338.463 1043.11 338.463 1038.23 338.463Z" fill="#A3A073"/>
<path d="M1067.46 350.793V356.913C1067.46 356.949 1067.45 356.983 1067.42 357.009C1067.4 357.034 1067.36 357.049 1067.33 357.049L1062.61 357.054C1062.59 357.054 1062.57 357.045 1062.55 357.03C1062.54 357.015 1062.53 356.994 1062.53 356.972L1062.52 344.481C1062.52 344.402 1062.56 344.363 1062.64 344.363C1066.99 344.368 1071.35 344.367 1075.74 344.36C1076.54 344.358 1077.03 343.648 1077.26 342.902C1077.7 341.478 1077.62 340.112 1077.03 338.804C1076.76 338.209 1076.19 338.243 1075.51 338.246C1071.22 338.252 1066.94 338.251 1062.65 338.241C1062.57 338.241 1062.53 338.201 1062.53 338.122L1062.52 332.317C1062.52 332.236 1062.56 332.195 1062.64 332.193C1067.94 332.18 1073.23 332.181 1078.51 332.195C1080.03 332.198 1081.36 333.693 1081.89 335.025C1082.11 335.567 1082.22 336.413 1082.24 337.561C1082.28 340.262 1082.27 342.179 1082.22 343.315C1082.18 344.4 1081.07 345.912 1080.49 346.896C1080.44 346.983 1080.45 347.067 1080.51 347.148C1081.53 348.495 1082.23 349.404 1082.24 351.199C1082.25 353.122 1082.25 355.042 1082.23 356.96C1082.23 356.985 1082.22 357.01 1082.2 357.028C1082.19 357.046 1082.16 357.056 1082.14 357.056L1077.4 357.054C1077.37 357.054 1077.33 357.039 1077.31 357.014C1077.28 356.988 1077.27 356.954 1077.27 356.918C1077.28 355.443 1077.28 353.972 1077.27 352.504C1077.27 352.054 1077.17 351.7 1076.97 351.441C1076.59 350.952 1076.23 350.677 1075.56 350.672C1072.9 350.649 1070.23 350.652 1067.57 350.68C1067.5 350.68 1067.46 350.718 1067.46 350.793Z" fill="#A3A073"/>
<path d="M1097.67 338.678C1096.13 338.71 1095.67 340.643 1095.56 341.792C1095.55 341.835 1095.53 341.875 1095.5 341.904C1095.47 341.932 1095.43 341.948 1095.38 341.948L1090.75 341.95C1090.71 341.95 1090.67 341.933 1090.64 341.902C1090.6 341.871 1090.59 341.829 1090.59 341.785C1090.62 338.948 1091.07 333.636 1094.29 332.435C1094.73 332.274 1095.42 332.192 1096.38 332.19C1100.23 332.184 1104.08 332.184 1107.93 332.19C1109.67 332.193 1111.16 333.911 1111.7 335.401C1112.44 337.409 1112.76 339.555 1112.67 341.837C1112.67 341.911 1112.63 341.948 1112.55 341.948H1107.87C1107.83 341.948 1107.79 341.933 1107.76 341.905C1107.73 341.877 1107.72 341.84 1107.71 341.8C1107.6 339.951 1106.94 338.624 1104.87 338.616C1102.47 338.608 1100.07 338.629 1097.67 338.678Z" fill="#A3A073"/>
<path d="M1143.72 332.188H1138.93C1138.84 332.188 1138.78 332.255 1138.78 332.339V347.425C1138.78 347.508 1138.84 347.576 1138.93 347.576H1143.72C1143.8 347.576 1143.87 347.508 1143.87 347.425V332.339C1143.87 332.255 1143.8 332.188 1143.72 332.188Z" fill="#A3A073"/>
<path d="M1158.16 350.845V356.886C1158.16 356.93 1158.14 356.973 1158.11 357.005C1158.08 357.036 1158.04 357.054 1158 357.054L1153.32 357.049C1153.3 357.049 1153.27 357.038 1153.25 357.02C1153.24 357.001 1153.23 356.976 1153.23 356.95V344.427C1153.23 344.401 1153.24 344.376 1153.25 344.357C1153.27 344.338 1153.3 344.328 1153.32 344.328C1157.79 344.32 1162.27 344.324 1166.75 344.34C1168.02 344.343 1168.11 343.305 1168.2 342.225C1168.29 341.202 1168.38 338.251 1166.79 338.248C1162.29 338.245 1157.78 338.244 1153.29 338.246C1153.27 338.246 1153.25 338.239 1153.24 338.227C1153.23 338.215 1153.22 338.198 1153.22 338.181V332.314C1153.22 332.281 1153.24 332.25 1153.26 332.227C1153.28 332.204 1153.32 332.19 1153.35 332.19C1158.26 332.189 1163.19 332.187 1168.15 332.186C1169.06 332.186 1169.73 332.264 1170.14 332.42C1171.98 333.107 1172.98 335.206 1172.97 337.072C1172.95 339.869 1172.94 342.666 1172.93 345.462C1172.93 347.558 1172.09 349.79 1169.91 350.489C1169.51 350.616 1168.8 350.676 1167.78 350.67C1164.63 350.65 1161.48 350.653 1158.33 350.677C1158.22 350.679 1158.16 350.735 1158.16 350.845Z" fill="#A3A073"/>
<path d="M1127.19 346.723C1127.2 347.842 1127.52 350.766 1129 350.776C1133.9 350.814 1138.78 350.828 1143.65 350.818C1143.67 350.818 1143.69 350.822 1143.71 350.831C1143.73 350.839 1143.75 350.851 1143.76 350.866C1143.78 350.881 1143.79 350.899 1143.8 350.919C1143.81 350.939 1143.81 350.96 1143.81 350.981L1143.82 356.967C1143.82 357 1143.81 357.031 1143.78 357.055C1143.76 357.078 1143.73 357.091 1143.7 357.091C1138.26 357.087 1132.8 357.089 1127.33 357.096C1125.87 357.097 1124.65 356.423 1123.66 355.074C1122.39 353.334 1122.14 351.836 1122.14 349.513C1122.13 343.824 1122.13 338.134 1122.14 332.445C1122.14 332.358 1122.18 332.314 1122.26 332.314L1127.08 332.312C1127.1 332.312 1127.11 332.314 1127.12 332.319C1127.14 332.325 1127.15 332.332 1127.16 332.342C1127.17 332.352 1127.18 332.363 1127.18 332.376C1127.19 332.388 1127.19 332.402 1127.19 332.415C1127.18 337.182 1127.18 341.951 1127.19 346.723Z" fill="#A3A073"/>
<path d="M1052.91 342.304H1048.09C1048.01 342.304 1047.95 342.366 1047.95 342.442V349.254C1047.95 349.33 1048.01 349.392 1048.09 349.392H1052.91C1052.99 349.392 1053.05 349.33 1053.05 349.254V342.442C1053.05 342.366 1052.99 342.304 1052.91 342.304Z" fill="#A3A073"/>
<path d="M1095.57 347.449C1095.67 348.952 1096.23 350.633 1098.1 350.645C1100.4 350.66 1102.7 350.665 1104.99 350.66C1107.06 350.655 1107.49 349.162 1107.73 347.445C1107.75 347.367 1107.79 347.328 1107.87 347.328H1112.57C1112.6 347.328 1112.63 347.342 1112.66 347.366C1112.68 347.39 1112.7 347.423 1112.7 347.457C1112.72 350.252 1112.24 355.329 1109.25 356.703C1108.77 356.924 1108.04 357.036 1107.05 357.041C1103.4 357.059 1099.76 357.059 1096.12 357.039C1095.31 357.036 1094.71 356.964 1094.31 356.824C1091.14 355.722 1090.58 350.257 1090.6 347.42C1090.6 347.359 1090.63 347.328 1090.69 347.328H1095.44C1095.48 347.328 1095.51 347.341 1095.53 347.363C1095.55 347.386 1095.57 347.417 1095.57 347.449Z" fill="#A3A073"/>
</svg>
