<svg width="189" height="177" viewBox="0 0 189 177" fill="none" xmlns="http://www.w3.org/2000/svg">
<path d="M46.2514 21.2057L46.2514 21.2058L46.2512 21.2057L46.2514 21.2057ZM46.2514 21.2057L46.2512 21.2057M46.2514 21.2057L46.2512 21.2057M46.2514 21.2057L46.2518 21.2051L46.2518 21.2051L46.2521 21.2047L46.2515 21.0342M46.2512 21.2057L46.251 21.2054L46.251 21.2054L46.1646 21.1254L46.2484 21.2052L46.2484 21.2052L46.2494 21.2062L46.2494 21.2062L46.2505 21.2072M46.2512 21.2057L46.3786 21.3237C46.3767 21.3237 46.3747 21.3237 46.3728 21.3237L46.2526 21.2092M46.2505 21.2072L46.1872 21.3047L46.2505 21.2072M46.2505 21.2072L46.2505 21.2072M46.2505 21.2072L46.2514 21.2058L46.2505 21.2072M46.2505 21.2072L46.2521 21.2087M46.2521 21.2087L46.2525 21.3241L46.2526 21.2092M46.2521 21.2087L46.2526 21.2092M46.2521 21.2087L46.2526 21.2092M188.289 35.9077C188.309 38.0257 188.331 40.2641 187.929 42.1193L153.792 34.3019C153.85 34.4019 153.937 34.4519 154.052 34.4519L188.062 34.4484C188.12 34.4484 188.174 34.4707 188.215 34.5105C188.256 34.5502 188.279 34.6043 188.28 34.6611C188.281 35.0692 188.285 35.486 188.289 35.9077ZM153.361 34.5555C153.508 34.8065 153.758 34.9519 154.052 34.9519L187.781 34.9484C187.783 35.2736 187.786 35.6016 187.789 35.9308C187.809 38.0498 187.829 40.2185 187.44 42.0135L187.44 42.014C186.096 48.2525 180.883 53.0807 174.717 54.5302C173.329 54.8556 171.048 55.0295 167.838 55.0365C159.491 55.0526 151.148 55.0516 142.81 55.0334C140.756 48.6711 137.728 42.7939 133.727 37.4035C132.572 35.8464 131.509 34.5718 130.538 33.5854C117.674 20.4944 98.8787 15.271 81.0961 20.4992L81.0961 20.4992C80.2917 20.7359 79.4567 20.8101 78.6808 20.8102C68.1537 20.783 57.6443 20.7867 47.1526 20.8211C78.8024 -11.5941 130.567 -3.92508 153.361 34.5555Z" stroke="#A3A073"/>
<path d="M76.7213 119.487H76.7212C76.7194 119.581 76.6947 119.672 76.6494 119.754C76.6494 119.754 76.6493 119.754 76.6493 119.754L76.2121 119.512C76.2062 119.522 76.1979 119.531 76.1878 119.538C76.1778 119.544 76.1662 119.548 76.1542 119.549C76.1422 119.551 76.1301 119.549 76.119 119.544L76.7213 119.487ZM76.7213 119.487V119.477V56.3038C76.7213 56.1701 76.6875 55.9781 76.5322 55.8231C76.3771 55.6683 76.1852 55.6347 76.0519 55.6347H76.0517C59.9387 55.6418 43.8199 55.6324 27.6951 55.6066H27.695C22.9877 55.5996 18.4693 54.6947 14.136 52.8914L13.9439 53.353M76.7213 119.487L13.9439 53.353M13.9439 53.353L14.136 52.8914C6.78916 49.834 0.402826 43.6685 0.501164 35.3351H102.321C103.484 35.3351 104.604 35.6711 105.688 36.3594L105.688 36.3597C113.567 41.3467 121.577 47.6798 126.521 55.6347M13.9439 53.353L126.521 55.6347M126.521 55.6347L96.2454 55.6312C96.0886 55.6312 95.8791 55.6706 95.7122 55.8372C95.5452 56.0039 95.5054 56.2135 95.5054 56.3707V123.188C95.5054 123.188 95.5054 123.189 95.5054 123.189C95.5054 123.283 95.5242 123.377 95.5606 123.464M126.521 55.6347L96.0689 123.341L95.7187 123.697C95.6507 123.631 95.5971 123.551 95.5606 123.464M95.5606 123.464C95.5606 123.464 95.5606 123.464 95.5606 123.464L96.022 123.271L95.5606 123.464ZM141.324 90.3325C141.435 90.331 141.545 90.3572 141.644 90.4086C141.744 90.461 141.829 90.5376 141.892 90.6307C141.955 90.7237 141.993 90.8304 142.004 90.9411C142.015 91.0517 142 91.1633 141.958 91.2662L141.958 91.2672C134.37 109.937 116.762 123.22 96.2372 123.9L96.2207 123.4L44.6906 72.2582C44.6641 72.2582 44.5576 72.2509 44.4591 72.1548C44.3628 72.0609 44.351 71.9571 44.3499 71.927C44.353 72.0374 44.3563 72.1477 44.36 72.258L26.8274 72.2479M141.324 90.3325C141.325 90.3325 141.326 90.3325 141.327 90.3325L141.329 90.8324L141.318 90.3326C141.32 90.3325 141.322 90.3325 141.324 90.3325ZM141.324 90.3325C136.546 90.3465 131.749 90.3501 126.933 90.343C118.414 90.3293 111.639 84.7838 110.42 76.2894L110.42 76.2888C110.183 74.6478 110.208 72.6553 110.233 70.7287C110.236 70.505 110.239 70.2822 110.241 70.061M110.241 70.061L163.308 70.0575M110.241 70.061L109.826 70.061C109.876 70.061 110.005 70.0483 110.119 69.9351C110.229 69.8247 110.245 69.6988 110.245 69.646M110.241 70.061C110.243 69.922 110.244 69.7836 110.245 69.646M163.308 70.0575C163.976 107.962 134.927 141.414 96.1522 142.073L96.149 142.073C95.9792 142.077 95.8174 142.147 95.6984 142.268M163.308 70.0575C163.306 69.9509 163.304 69.8442 163.302 69.7375M163.308 70.0575L163.629 70.0575C163.543 70.0575 163.461 70.0242 163.4 69.9643C163.339 69.9046 163.303 69.8232 163.302 69.7375M95.6984 142.268C95.6984 142.268 95.6984 142.269 95.6983 142.269L96.0557 142.618L95.6984 142.268ZM95.6984 142.268C95.5793 142.39 95.5124 142.554 95.5125 142.724L95.5125 142.727C95.5336 146.475 95.516 150.231 95.4596 153.995M95.4596 153.995C95.4596 153.995 95.4596 153.995 95.4596 153.995L95.9596 154.002L95.4596 153.995ZM95.4596 153.995C95.4023 157.672 94.6048 162.017 92.9763 165.91C91.3457 169.809 88.9047 173.202 85.5958 175.056M85.5958 175.056C82.9304 176.547 80.5132 176.521 77.6755 176.491C77.364 176.487 77.0474 176.484 76.7248 176.482M85.5958 175.056L85.8399 175.492L85.5956 175.056C85.5957 175.056 85.5957 175.056 85.5958 175.056ZM76.7248 176.482L76.7213 140.02C76.7213 139.885 76.6879 139.729 76.5854 139.59C76.483 139.451 76.3452 139.373 76.2174 139.332L76.2118 139.33C46.7295 130.343 27.3692 102.585 26.8274 72.2479M76.7248 176.482L76.7248 176.725C76.7248 176.662 76.7003 176.601 76.6548 176.555C76.6093 176.509 76.5464 176.482 76.4794 176.482M76.7248 176.482C76.6434 176.482 76.5616 176.482 76.4794 176.482M26.8274 72.2479L26.4523 72.2477M26.8274 72.2479C26.8252 72.1236 26.8233 71.9994 26.8217 71.8751L26.4552 71.8797M26.4523 72.2477L26.4552 71.8797M26.4523 72.2477H26.452L26.4522 71.8815H26.3217L26.4522 71.8798M26.4523 72.2477V71.8815H26.4569H26.8217C26.8217 71.9746 26.7857 72.0664 26.7178 72.136C26.6495 72.206 26.5543 72.2477 26.4523 72.2477ZM26.4523 72.2477L26.4522 71.8798M26.4552 71.8797L26.4523 71.8798M26.4552 71.8797L26.4523 71.8798M26.4523 71.8798V71.8769V71.8798ZM26.4522 71.8798L26.4522 71.8768L26.4522 71.8798ZM76.4794 176.482H76.4789H76.4794ZM163.302 69.7375C163.302 69.7372 163.302 69.7369 163.302 69.7366L163.302 69.7375ZM110.245 69.646V69.642C110.245 69.6433 110.245 69.6446 110.245 69.646ZM109.925 76.3604C109.682 74.6766 109.708 72.636 109.733 70.7112C109.738 70.3497 109.743 69.9922 109.745 69.642C109.745 69.588 109.772 69.561 109.826 69.561L163.629 69.5575C163.674 69.5575 163.717 69.5752 163.75 69.6068C163.782 69.6384 163.8 69.6813 163.801 69.7265C164.645 108.012 135.348 141.907 96.1607 142.573L109.925 76.3604Z" stroke="#A3A073"/>
</svg>
