<svg width="52" height="52" viewBox="0 0 52 52" fill="none" xmlns="http://www.w3.org/2000/svg">
<rect width="52" height="52" rx="10" fill="#A3A073" fill-opacity="0.13"/>
<path d="M38.4999 19.3333C40.8011 19.3333 42.6666 17.4679 42.6666 15.1667C42.6666 12.8655 40.8011 11 38.4999 11C36.1987 11 34.3333 12.8655 34.3333 15.1667C34.3333 17.4679 36.1987 19.3333 38.4999 19.3333Z" fill="#A3A073"/>
<path d="M38.4999 19.3333C40.8011 19.3333 42.6666 17.4679 42.6666 15.1667C42.6666 12.8655 40.8011 11 38.4999 11C36.1987 11 34.3333 12.8655 34.3333 15.1667C34.3333 17.4679 36.1987 19.3333 38.4999 19.3333Z" fill="#A3A073"/>
<path d="M40.5333 21.5166C39.3666 21.8833 38.0833 21.9499 36.7499 21.6166C34.5166 21.0333 32.6999 19.2499 32.0833 17.0166C31.7833 15.9333 31.7666 14.8666 31.9499 13.8999C32.1666 12.8333 31.4166 11.8333 30.3499 11.8333H17.6666C12.6666 11.8333 9.33325 14.3333 9.33325 20.1666V31.8333C9.33325 37.6666 12.6666 40.1666 17.6666 40.1666H34.3333C39.3333 40.1666 42.6666 37.6666 42.6666 31.8333V23.0999C42.6666 21.9999 41.5999 21.1666 40.5333 21.5166ZM31.8666 24.5833L29.8999 26.1499C28.7999 27.0333 27.3999 27.4666 25.9999 27.4666C24.5999 27.4666 23.1833 27.0333 22.0999 26.1499L16.8833 21.9833C16.3499 21.5499 16.2666 20.7499 16.6833 20.2166C17.1166 19.6833 17.8999 19.5833 18.4333 20.0166L23.6499 24.1833C24.9166 25.1999 27.0666 25.1999 28.3333 24.1833L30.2999 22.6166C30.8333 22.1833 31.6333 22.2666 32.0499 22.8166C32.4833 23.3499 32.3999 24.1499 31.8666 24.5833Z" fill="#A3A073"/>
</svg>
