<svg width="52" height="52" viewBox="0 0 52 52" fill="none" xmlns="http://www.w3.org/2000/svg">
<rect width="52" height="52" rx="10" fill="#A3A073" fill-opacity="0.13"/>
<path d="M40.3666 20.0834C38.6166 12.3834 31.8999 8.91675 25.9999 8.91675C25.9999 8.91675 25.9999 8.91675 25.9832 8.91675C20.0999 8.91675 13.3666 12.3667 11.6166 20.0667C9.66658 28.6667 14.9332 35.9501 19.6999 40.5334C21.4666 42.2334 23.7332 43.0834 25.9999 43.0834C28.2666 43.0834 30.5332 42.2334 32.2832 40.5334C37.0499 35.9501 42.3166 28.6834 40.3666 20.0834ZM25.9999 28.4334C23.0999 28.4334 20.7499 26.0834 20.7499 23.1834C20.7499 20.2834 23.0999 17.9334 25.9999 17.9334C28.8999 17.9334 31.2499 20.2834 31.2499 23.1834C31.2499 26.0834 28.8999 28.4334 25.9999 28.4334Z" fill="#A3A073"/>
</svg>
