<svg width="84" height="84" viewBox="0 0 84 84" fill="none" xmlns="http://www.w3.org/2000/svg">
<rect width="84" height="84" rx="8" fill="#A3A073" fill-opacity="0.22"/>
<path d="M42 44.8334V13.6667L64.6667 25L42 36.3334" stroke="#A3A073" stroke-width="3.66667" stroke-linecap="round" stroke-linejoin="round"/>
<path d="M66.225 36.985C67.7327 41.632 67.8738 46.6144 66.6314 51.3394C65.389 56.0643 62.8155 60.3329 59.2169 63.6373C55.6184 66.9416 51.1463 69.1427 46.3328 69.9787C41.5193 70.8146 36.567 70.2502 32.0651 68.3525C27.5631 66.4549 23.7011 63.3039 20.9384 59.2745C18.1757 55.2451 16.6286 50.5069 16.4813 45.6236C16.334 40.7403 17.5926 35.9174 20.1074 31.7288C22.6222 27.5402 26.2873 24.1622 30.6667 21.9966" stroke="#A3A073" stroke-width="3.66667" stroke-linecap="round" stroke-linejoin="round"/>
<path d="M30.6667 36.3333C29.2469 38.2232 28.3226 40.4383 27.978 42.7769C27.6333 45.1154 27.8793 47.503 28.6936 49.7221C29.5078 51.9412 30.8643 53.9213 32.6396 55.482C34.4149 57.0427 36.5525 58.1344 38.8577 58.6576C41.1628 59.1808 43.5622 59.1189 45.8373 58.4775C48.1124 57.8361 50.1909 56.6356 51.8833 54.9854C53.5757 53.3352 54.8283 51.2877 55.527 49.0295C56.2256 46.7714 56.3482 44.3743 55.8834 42.0566" stroke="#A3A073" stroke-width="3.66667" stroke-linecap="round" stroke-linejoin="round"/>
</svg>
