<svg width="160" height="71" viewBox="0 0 160 71" fill="none" xmlns="http://www.w3.org/2000/svg">
<path d="M41.1578 11.6687L50.2749 11.6676C50.2903 11.6676 50.305 11.6747 50.3159 11.6875C50.3269 11.7003 50.3331 11.7177 50.3334 11.736C50.3343 12.5267 50.3683 13.4196 50.2391 14.1352C49.8667 16.2091 48.426 17.8052 46.728 18.2841C46.3402 18.3933 45.7154 18.449 44.8537 18.4512C42.5997 18.4565 40.347 18.4561 38.0955 18.4501C38.0813 18.4501 38.0674 18.4447 38.0559 18.4346C38.0444 18.4246 38.0358 18.4103 38.0314 18.394C37.4852 16.3429 36.6753 14.4496 35.6018 12.7141C35.2944 12.2168 35.0134 11.813 34.7589 11.5027C31.344 7.33246 26.3564 5.6702 21.6386 7.3347C21.4066 7.41658 21.169 7.44126 20.9531 7.44126C18.0505 7.43228 15.1529 7.43378 12.2603 7.44574C12.2541 7.44574 12.248 7.44357 12.2428 7.43952C12.2376 7.43547 12.2335 7.4297 12.231 7.42293C12.2285 7.41615 12.2277 7.40865 12.2287 7.40135C12.2297 7.39405 12.2325 7.38726 12.2367 7.38181C20.7693 -3.36793 34.8946 -0.927257 41.088 11.6205C41.1038 11.6526 41.127 11.6687 41.1578 11.6687Z" fill="url(#paint0_linear_25_544)"/>
<path d="M55.6245 9.86287L56.0733 4.32424C56.0744 4.31055 56.0798 4.29784 56.0883 4.28854C56.0968 4.27923 56.1079 4.27397 56.1195 4.27377L69.0569 4.27264C69.0635 4.27261 69.0701 4.27422 69.0761 4.27738C69.0822 4.28054 69.0876 4.28518 69.092 4.291C69.0965 4.29682 69.0998 4.30368 69.1019 4.31115C69.104 4.31861 69.1047 4.32651 69.104 4.33433L68.6553 9.87409C68.6541 9.88778 68.6488 9.90048 68.6402 9.90979C68.6317 9.9191 68.6206 9.92435 68.6091 9.92456H64.4192C64.4076 9.92477 64.3965 9.93002 64.388 9.93933C64.3795 9.94864 64.3741 9.96134 64.373 9.97503L62.5495 32.4167C62.5484 32.4304 62.543 32.4431 62.5345 32.4524C62.526 32.4617 62.5149 32.467 62.5033 32.4672H58.2097C58.2031 32.4672 58.1966 32.4656 58.1905 32.4624C58.1845 32.4593 58.1791 32.4546 58.1746 32.4488C58.1702 32.443 58.1668 32.4361 58.1647 32.4287C58.1627 32.4212 58.1619 32.4133 58.1626 32.4055L59.9851 9.98513C59.9857 9.97731 59.985 9.96941 59.9829 9.96194C59.9808 9.95448 59.9775 9.94761 59.973 9.9418C59.9686 9.93598 59.9632 9.93134 59.9571 9.92818C59.9511 9.92501 59.9445 9.9234 59.9379 9.92344L55.6716 9.92456C55.665 9.9246 55.6585 9.92299 55.6524 9.91982C55.6464 9.91666 55.641 9.91202 55.6365 9.9062C55.6321 9.90039 55.6287 9.89352 55.6266 9.88606C55.6246 9.87859 55.6238 9.87069 55.6245 9.86287Z" fill="url(#paint1_linear_25_544)"/>
<path d="M79.9926 21.2374L81.5134 27.2336C81.5154 27.2416 81.516 27.25 81.5153 27.2583L81.1325 32.4088C81.1313 32.4248 81.1251 32.4397 81.1152 32.4505C81.1052 32.4613 81.0922 32.4672 81.0787 32.4672H76.8332C76.8257 32.4672 76.8183 32.4654 76.8115 32.4618C76.8046 32.4583 76.7985 32.453 76.7934 32.4465C76.7884 32.44 76.7845 32.4322 76.7821 32.4238C76.7797 32.4154 76.7788 32.4065 76.7795 32.3976L77.0642 28.8275C77.0649 28.8184 77.0639 28.8092 77.0614 28.8005L74.8193 21.197C74.8157 21.1847 74.8089 21.174 74.8 21.1663C74.7911 21.1587 74.7804 21.1545 74.7694 21.1544L73.423 21.1532C73.4096 21.1532 73.3966 21.1591 73.3866 21.1699C73.3766 21.1807 73.3705 21.1956 73.3693 21.2116L72.4604 32.4088C72.4592 32.4248 72.453 32.4397 72.4431 32.4505C72.4331 32.4613 72.4201 32.4672 72.4067 32.4672H68.1272C68.1197 32.4672 68.1123 32.4654 68.1055 32.4618C68.0986 32.4583 68.0925 32.453 68.0874 32.4465C68.0824 32.44 68.0785 32.4322 68.0761 32.4238C68.0737 32.4154 68.0728 32.4065 68.0734 32.3976L70.3513 4.33097C70.3525 4.315 70.3587 4.30015 70.3686 4.28935C70.3786 4.27854 70.3916 4.27258 70.405 4.27265H83.3274C83.3349 4.2726 83.3424 4.27444 83.3493 4.27807C83.3563 4.28169 83.3625 4.28701 83.3675 4.29368C83.3726 4.30035 83.3764 4.30822 83.3788 4.31677C83.3811 4.32532 83.3819 4.33436 83.3811 4.34331L82.0074 21.1095C82.0062 21.1255 82.0001 21.1403 81.9901 21.1511C81.9802 21.1619 81.9672 21.1679 81.9537 21.1678L80.0445 21.1544C80.036 21.1543 80.0276 21.1565 80.02 21.161C80.0124 21.1655 80.0058 21.1721 80.0008 21.1802C79.9957 21.1882 79.9923 21.1977 79.9909 21.2076C79.9895 21.2175 79.9901 21.2277 79.9926 21.2374ZM73.8388 15.4408C73.8381 15.4484 73.8389 15.4562 73.8409 15.4635C73.8429 15.4708 73.8462 15.4776 73.8506 15.4833C73.8549 15.489 73.8602 15.4936 73.8662 15.4967C73.8721 15.4998 73.8785 15.5014 73.885 15.5013L78.0891 15.5024C78.1007 15.5025 78.1119 15.4973 78.1205 15.488C78.129 15.4786 78.1343 15.4658 78.1353 15.452L78.5416 9.98401C78.5421 9.97642 78.5413 9.96879 78.5392 9.96159C78.5372 9.9544 78.5338 9.9478 78.5295 9.94221C78.5251 9.93662 78.5199 9.93217 78.514 9.92913C78.5081 9.92609 78.5018 9.92454 78.4954 9.92456H74.3272C74.3157 9.92449 74.3046 9.9295 74.2961 9.93863C74.2875 9.94775 74.2822 9.96033 74.281 9.97391L73.8388 15.4408Z" fill="url(#paint2_linear_25_544)"/>
<path d="M83.0324 32.4122L85.3112 4.31302C85.3121 4.30042 85.317 4.28871 85.3249 4.28019C85.3327 4.27168 85.343 4.26698 85.3536 4.26703L89.5944 4.27488C89.6003 4.27501 89.606 4.27656 89.6113 4.27944C89.6166 4.28232 89.6213 4.28647 89.6252 4.29162C89.6291 4.29678 89.6321 4.30283 89.6339 4.30941C89.6358 4.31598 89.6364 4.32294 89.6359 4.32984L87.3571 32.4212C87.3562 32.4338 87.3513 32.4455 87.3434 32.454C87.3356 32.4625 87.3253 32.4672 87.3147 32.4672H83.0748C83.0689 32.4672 83.0631 32.4657 83.0577 32.4629C83.0523 32.4601 83.0474 32.456 83.0434 32.4508C83.0394 32.4457 83.0364 32.4395 83.0345 32.4329C83.0326 32.4262 83.0319 32.4192 83.0324 32.4122Z" fill="url(#paint3_linear_25_544)"/>
<path d="M102.998 57.5333L99.3529 70.6698C99.344 70.6991 99.3061 70.7261 99.2463 70.7457C99.1866 70.7653 99.1093 70.776 99.0294 70.7758L0.324819 70.7732C0.2798 70.7732 0.235217 70.7699 0.193965 70.7632C0.152713 70.7566 0.115678 70.7468 0.0852273 70.7346C0.0547765 70.7224 0.0315808 70.7079 0.0171237 70.6922C0.00266663 70.6765 -0.00271942 70.6599 0.00128259 70.6433L17.3855 4.26381C17.3927 4.23405 17.4299 4.20637 17.4898 4.18625C17.5497 4.16613 17.628 4.15503 17.709 4.15515L50.0402 4.1684C50.0852 4.16834 50.1298 4.17173 50.171 4.17838C50.2123 4.18502 50.2493 4.19477 50.2797 4.20699C50.3102 4.21921 50.3334 4.23364 50.3479 4.24936C50.3623 4.26507 50.3677 4.28173 50.3637 4.29826L36.488 57.2736C36.484 57.2901 36.4894 57.3068 36.5038 57.3225C36.5183 57.3382 36.5415 57.3527 36.5719 57.3649C36.6024 57.3771 36.6394 57.3868 36.6807 57.3935C36.7219 57.4001 36.7665 57.4035 36.8115 57.4035L102.674 57.4008C102.72 57.4007 102.765 57.4042 102.807 57.411C102.849 57.4178 102.886 57.4278 102.917 57.4403C102.947 57.4528 102.971 57.4676 102.984 57.4836C102.998 57.4996 103.003 57.5166 102.998 57.5333Z" fill="url(#paint4_linear_25_544)"/>
<path d="M116.763 26.8612L116.283 32.4189C116.282 32.4313 116.277 32.4428 116.269 32.4511C116.261 32.4593 116.251 32.4639 116.241 32.4638L103.296 32.4649C103.291 32.465 103.285 32.4635 103.279 32.4607C103.274 32.4579 103.269 32.4538 103.265 32.4486C103.261 32.4434 103.258 32.4373 103.256 32.4307C103.254 32.424 103.254 32.417 103.254 32.41L105.535 4.31864C105.536 4.30605 105.541 4.29433 105.548 4.28582C105.556 4.2773 105.567 4.2726 105.577 4.27265L109.818 4.26929C109.824 4.26926 109.83 4.2707 109.835 4.27351C109.841 4.27632 109.845 4.28045 109.849 4.28562C109.853 4.29079 109.856 4.2969 109.858 4.30355C109.86 4.3102 109.861 4.31725 109.86 4.32425L108.04 26.7502C108.039 26.7572 108.04 26.7642 108.042 26.7709C108.044 26.7776 108.047 26.7837 108.051 26.7888C108.055 26.794 108.06 26.7981 108.065 26.8009C108.071 26.8038 108.076 26.8052 108.082 26.8052H116.72C116.726 26.8051 116.732 26.8066 116.738 26.8095C116.743 26.8123 116.748 26.8166 116.752 26.8219C116.756 26.8272 116.759 26.8334 116.761 26.8402C116.763 26.847 116.763 26.8542 116.763 26.8612Z" fill="url(#paint5_linear_25_544)"/>
<path d="M117.265 32.4111L119.549 4.31975C119.55 4.30686 119.555 4.29486 119.563 4.28614C119.571 4.27741 119.581 4.2726 119.592 4.27264H123.829C123.835 4.27262 123.841 4.27409 123.847 4.27695C123.852 4.27982 123.857 4.28403 123.861 4.28931C123.865 4.29458 123.869 4.30081 123.87 4.3076C123.872 4.31439 123.873 4.32158 123.873 4.32873L121.593 32.4201C121.592 32.4329 121.587 32.4449 121.579 32.4537C121.571 32.4624 121.56 32.4672 121.549 32.4672H117.309C117.303 32.4672 117.297 32.4657 117.291 32.4629C117.286 32.46 117.281 32.4558 117.277 32.4505C117.273 32.4452 117.269 32.439 117.267 32.4322C117.266 32.4254 117.265 32.4182 117.265 32.4111Z" fill="url(#paint6_linear_25_544)"/>
<path d="M138.794 4.32536L136.514 32.4189C136.513 32.4309 136.508 32.4421 136.501 32.4502C136.493 32.4583 136.484 32.4627 136.473 32.4627L123.525 32.4649C123.519 32.4648 123.514 32.4633 123.508 32.4605C123.503 32.4578 123.499 32.4538 123.495 32.4488C123.491 32.4439 123.489 32.4381 123.487 32.4318C123.485 32.4255 123.485 32.4188 123.485 32.4122L125.765 4.31751C125.766 4.30551 125.77 4.29437 125.778 4.28627C125.785 4.27817 125.795 4.27371 125.805 4.27377L138.754 4.27264C138.76 4.27277 138.765 4.27426 138.77 4.27703C138.775 4.2798 138.78 4.28378 138.784 4.28873C138.787 4.29368 138.79 4.29948 138.792 4.30579C138.794 4.31209 138.794 4.31875 138.794 4.32536ZM128.331 26.7502C128.331 26.7572 128.331 26.7642 128.333 26.7709C128.335 26.7775 128.338 26.7836 128.342 26.7888C128.346 26.794 128.351 26.7981 128.356 26.8009C128.362 26.8037 128.368 26.8052 128.374 26.8052H132.574C132.584 26.8052 132.595 26.8005 132.603 26.792C132.61 26.7835 132.615 26.7718 132.616 26.7592L133.948 9.98064C133.948 9.97374 133.947 9.96678 133.946 9.96021C133.944 9.95363 133.941 9.94758 133.937 9.94242C133.933 9.93727 133.928 9.93312 133.923 9.93024C133.918 9.92736 133.912 9.92581 133.906 9.92568L129.736 9.9268C129.725 9.92675 129.715 9.93145 129.707 9.93997C129.699 9.94848 129.694 9.9602 129.694 9.97279L128.331 26.7502Z" fill="url(#paint7_linear_25_544)"/>
<path d="M144.645 9.97616L142.823 32.4167C142.821 32.4304 142.816 32.4431 142.808 32.4524C142.799 32.4617 142.788 32.467 142.776 32.4672H138.484C138.477 32.4672 138.471 32.4656 138.464 32.4624C138.458 32.4593 138.453 32.4546 138.449 32.4488C138.444 32.443 138.441 32.4361 138.439 32.4287C138.437 32.4212 138.436 32.4133 138.437 32.4055L140.716 4.32424C140.717 4.31055 140.723 4.29784 140.731 4.28854C140.74 4.27923 140.751 4.27397 140.762 4.27377L153.699 4.27264C153.706 4.27261 153.712 4.27422 153.718 4.27738C153.724 4.28054 153.73 4.28518 153.734 4.291C153.739 4.29682 153.742 4.30368 153.744 4.31115C153.746 4.31861 153.747 4.32651 153.746 4.33433L151.464 32.4167C151.463 32.4304 151.458 32.4431 151.449 32.4524C151.441 32.4617 151.43 32.467 151.418 32.4672H147.218C147.211 32.4672 147.205 32.4656 147.199 32.4624C147.193 32.4593 147.187 32.4546 147.183 32.4488C147.178 32.443 147.175 32.4361 147.173 32.4287C147.171 32.4212 147.17 32.4133 147.171 32.4055L148.99 9.98625C148.991 9.97843 148.99 9.97053 148.988 9.96306C148.986 9.9556 148.983 9.94873 148.978 9.94292C148.974 9.9371 148.969 9.93246 148.963 9.9293C148.956 9.92613 148.95 9.92452 148.943 9.92456L144.691 9.92568C144.68 9.92589 144.669 9.93115 144.66 9.94045C144.652 9.94976 144.646 9.96247 144.645 9.97616Z" fill="url(#paint8_linear_25_544)"/>
<path d="M160 4.33099L157.719 32.419C157.718 32.4322 157.713 32.4445 157.704 32.4534C157.696 32.4624 157.685 32.4673 157.674 32.4672H153.44C153.433 32.4672 153.427 32.4657 153.421 32.4626C153.415 32.4596 153.41 32.4551 153.406 32.4495C153.401 32.4439 153.398 32.4373 153.396 32.4301C153.394 32.4229 153.394 32.4153 153.394 32.4077L155.674 4.3209C155.675 4.30761 155.68 4.29532 155.689 4.2864C155.697 4.27749 155.708 4.2726 155.719 4.27267L159.954 4.27155C159.961 4.27151 159.967 4.27306 159.973 4.27611C159.979 4.27916 159.984 4.28363 159.988 4.28924C159.993 4.29485 159.996 4.30147 159.998 4.30866C160 4.31586 160 4.32347 160 4.33099Z" fill="url(#paint9_linear_25_544)"/>
<path d="M20.3667 38.6305V18.5073C20.3667 18.4714 20.3516 18.4535 20.3214 18.4535C16.0159 18.4557 11.7087 18.4527 7.40004 18.4445C6.12472 18.4423 4.89999 18.1499 3.72586 17.5674C1.70917 16.5669 -0.0784271 14.5143 0.00265565 11.7057C0.00290097 11.6958 0.00638619 11.6864 0.0123715 11.6795C0.0183567 11.6726 0.0263706 11.6687 0.0347115 11.6687C9.13421 11.6687 18.2362 11.6687 27.3407 11.6687C27.6789 11.6687 28.0026 11.7857 28.3119 12.0198C30.4671 13.6461 32.6743 15.7313 34.0037 18.3727C34.0076 18.3808 34.0097 18.3901 34.0097 18.3995C34.0098 18.4089 34.0077 18.4181 34.0038 18.4263C33.9999 18.4344 33.9943 18.4412 33.9875 18.446C33.9807 18.4508 33.9729 18.4534 33.965 18.4535L25.7172 18.4523C25.6745 18.4523 25.6531 18.4778 25.6531 18.5286V39.8127C25.6531 39.8218 25.6546 39.8307 25.6575 39.839C25.6604 39.8473 25.6647 39.8549 25.6701 39.8611C25.6754 39.8674 25.6818 39.8723 25.6887 39.8756C25.6957 39.8788 25.7031 39.8803 25.7106 39.88C31.1384 39.6658 35.7988 35.4776 37.808 29.5846C37.8109 29.5758 37.8121 29.5663 37.8113 29.5569C37.8105 29.5475 37.8077 29.5385 37.8033 29.5307C37.799 29.5229 37.793 29.5166 37.7861 29.5123C37.7792 29.508 37.7715 29.5058 37.7637 29.5061C36.4864 29.5105 35.2042 29.5117 33.9169 29.5094C31.5778 29.5049 29.7082 27.6845 29.3725 24.8961C29.2952 24.259 29.3197 23.4616 29.3245 22.7561C29.3245 22.7389 29.3317 22.7303 29.3461 22.7303L43.7223 22.7291C43.7344 22.7291 43.746 22.7348 43.7546 22.7448C43.7633 22.7549 43.7682 22.7686 43.7685 22.783C43.9938 34.9785 36.1656 45.7754 25.6946 45.9873C25.684 45.9876 25.6739 45.9928 25.6665 46.0019C25.6591 46.0109 25.655 46.023 25.655 46.0356C25.6606 47.2305 25.6559 48.428 25.6408 49.6282C25.6097 52.0083 24.7763 55.2453 22.9368 56.4735C22.0892 57.0388 21.3227 56.9491 20.4355 56.948C20.4175 56.948 20.4002 56.9393 20.3875 56.924C20.3748 56.9086 20.3676 56.8878 20.3676 56.8661L20.3667 45.1742C20.3667 45.1398 20.3529 45.1173 20.3252 45.1069C12.3555 42.2108 7.13794 33.2433 7.03329 23.4694C7.03329 23.4581 7.03696 23.4473 7.0435 23.4393C7.05005 23.4313 7.05892 23.4268 7.06817 23.4268L11.9416 23.4302C11.9693 23.4302 11.9834 23.4466 11.984 23.4795C12.1377 30.1005 15.1972 35.9969 20.3393 38.6519C20.3423 38.6533 20.3456 38.6539 20.3488 38.6535C20.352 38.6532 20.355 38.6519 20.3577 38.6498C20.3604 38.6477 20.3627 38.6448 20.3642 38.6415C20.3658 38.6381 20.3666 38.6344 20.3667 38.6305Z" fill="url(#paint10_linear_25_544)"/>
<path d="M77.0152 42.6325C76.7575 42.6325 76.5686 42.7451 76.4485 42.9701C76.1827 43.4659 76.0466 44.0121 76.0403 44.6089C76.0302 45.6423 76.0353 46.6757 76.0554 47.7091C76.0724 48.557 76.2779 49.7224 77.1915 49.7179C79.458 49.7089 81.7249 49.7056 83.9921 49.7078C84.0006 49.7078 84.0087 49.7118 84.0147 49.719C84.0207 49.7261 84.0241 49.7358 84.0241 49.7459L84.0194 53.1624C84.0194 53.1794 84.0137 53.1957 84.0037 53.2076C83.9936 53.2196 83.9799 53.2264 83.9657 53.2264C81.3113 53.2294 78.6529 53.2297 75.9903 53.2275C75.7213 53.2275 75.4193 53.1056 75.0843 52.8618C74.1151 52.1586 73.6399 50.8306 73.6286 49.5171C73.6122 47.5602 73.6069 45.6037 73.6125 43.6476C73.615 42.6763 73.6612 41.9958 73.7511 41.6062C73.9859 40.5856 74.6251 39.5088 75.5095 39.1801C75.727 39.0986 76.051 39.0579 76.4815 39.0579C78.9712 39.0571 81.4593 39.0568 83.9459 39.0568C83.9576 39.0568 83.9689 39.0623 83.9772 39.0722C83.9855 39.0821 83.9902 39.0955 83.9902 39.1095L83.9864 42.5664C83.9864 42.6112 83.9679 42.6337 83.9308 42.6337C81.6253 42.6366 79.3201 42.6363 77.0152 42.6325Z" fill="url(#paint11_linear_25_544)"/>
<path d="M90.97 49.5788C90.9558 49.5788 90.9421 49.5855 90.932 49.5975C90.9219 49.6095 90.9163 49.6258 90.9163 49.6427L90.9153 53.1636C90.9153 53.1799 90.9098 53.1956 90.8999 53.2072C90.89 53.2187 90.8765 53.2252 90.8625 53.2252L88.6375 53.232C88.616 53.232 88.5953 53.2218 88.5801 53.2037C88.5649 53.1856 88.5564 53.1611 88.5564 53.1355L88.5592 46.0401C88.5592 46.0273 88.5635 46.015 88.5711 46.006C88.5787 45.9969 88.589 45.9918 88.5998 45.9918C90.6809 45.9926 92.7554 45.9937 94.8233 45.9952C96.0839 45.9963 95.9359 42.5215 95.1062 42.5181C92.9402 42.5106 90.7799 42.5062 88.6252 42.5047C88.6075 42.5047 88.5904 42.4963 88.5779 42.4813C88.5653 42.4664 88.5583 42.4461 88.5583 42.425L88.5573 39.0859C88.5573 39.0785 88.5599 39.0714 88.5645 39.0661C88.5691 39.0608 88.5753 39.0579 88.5818 39.0579C90.9747 39.0564 93.3698 39.0564 95.7671 39.0579C96.1687 39.0579 96.4623 39.0986 96.6477 39.1801C97.285 39.4583 97.7253 40.1818 97.9064 40.9366C97.9673 41.1924 97.9991 41.6077 98.0016 42.1828C98.0079 43.8024 98.0072 44.8358 97.9997 45.283C97.9884 45.9806 97.4698 46.8353 97.154 47.4421C97.1445 47.4603 97.1399 47.4816 97.1408 47.503C97.1416 47.5244 97.1479 47.545 97.1587 47.5621C97.633 48.308 98.0346 48.9384 98.0214 49.9377C98.0069 51.0048 97.9988 52.0756 97.9969 53.1501C97.9969 53.1606 97.9952 53.1709 97.9919 53.1806C97.9885 53.1902 97.9837 53.199 97.9775 53.2064C97.9714 53.2138 97.9641 53.2197 97.9561 53.2237C97.9481 53.2277 97.9395 53.2297 97.9309 53.2297H95.6738C95.6605 53.2297 95.6478 53.2235 95.6384 53.2123C95.6291 53.2012 95.6238 53.1861 95.6238 53.1703C95.6225 52.2573 95.6225 51.3387 95.6238 50.4144C95.6238 50.1082 95.2863 49.7818 95.0845 49.6181C95.06 49.5979 95.0326 49.5878 95.0025 49.5878L90.97 49.5788Z" fill="url(#paint12_linear_25_544)"/>
<path d="M111.201 39.4291C112.397 40.3915 112.587 43.0105 112.588 44.5393C112.588 44.5489 112.586 44.5584 112.583 44.5672C112.58 44.5761 112.576 44.5841 112.57 44.5909C112.564 44.5976 112.558 44.603 112.55 44.6067C112.543 44.6103 112.535 44.6122 112.527 44.6122H110.265C110.249 44.6123 110.233 44.605 110.22 44.5917C110.208 44.5784 110.201 44.5601 110.199 44.5404C110.147 43.8675 110.034 43.1698 109.481 42.8501C109.317 42.7552 109.03 42.7084 108.622 42.7099C107.167 42.7159 106.181 42.7152 105.666 42.7077C104.71 42.692 104.451 43.6005 104.376 44.5517C104.375 44.5679 104.369 44.5831 104.358 44.5941C104.348 44.6051 104.335 44.6112 104.321 44.6111L102.059 44.6122C102.025 44.6122 102.009 44.5924 102.009 44.5528C101.992 43.0083 102.171 41.1228 102.986 39.8812C103.45 39.1734 104.001 39.0613 104.791 39.059C106.631 39.0553 108.47 39.0556 110.309 39.0601C110.598 39.0609 110.896 39.1839 111.201 39.4291Z" fill="url(#paint13_linear_25_544)"/>
<path d="M127.449 39.0557H125.139C125.105 39.0557 125.078 39.0883 125.078 39.1286V47.7562C125.078 47.7964 125.105 47.8291 125.139 47.8291H127.449C127.483 47.8291 127.51 47.7964 127.51 47.7562V39.1286C127.51 39.0883 127.483 39.0557 127.449 39.0557Z" fill="url(#paint14_linear_25_544)"/>
<path d="M134.352 49.6281V53.1669C134.352 53.1832 134.347 53.1989 134.337 53.2105C134.327 53.2221 134.314 53.2286 134.3 53.2286L132.047 53.2297C132.013 53.2297 131.996 53.2095 131.996 53.1691L131.994 46.012C131.994 46.0039 131.997 45.9962 132.002 45.9906C132.006 45.9849 132.013 45.9817 132.02 45.9817C134.193 45.9824 136.369 45.9817 138.547 45.9794C139.442 45.9783 139.16 43.6105 139.03 43.0239C138.928 42.5573 138.688 42.5069 138.302 42.5069C136.207 42.5069 134.12 42.5069 132.04 42.5069C132.028 42.5069 132.016 42.5009 132.007 42.4904C131.998 42.4799 131.993 42.4656 131.993 42.4508L131.992 39.115C131.992 39.0776 132.008 39.059 132.039 39.059C134.579 39.0545 137.117 39.0548 139.654 39.0601C140.445 39.0612 141.106 40.0415 141.321 40.8682C141.398 41.1605 141.436 41.697 141.434 42.4777C141.431 43.716 141.431 44.955 141.434 46.1948C141.435 46.9455 141.395 47.4735 141.315 47.7785C141.049 48.7858 140.314 49.6102 139.372 49.6034C137.715 49.593 136.055 49.5855 134.392 49.581C134.381 49.581 134.371 49.586 134.364 49.5948C134.356 49.6036 134.352 49.6156 134.352 49.6281Z" fill="url(#paint15_linear_25_544)"/>
<path d="M119.522 47.0899C119.522 47.8235 119.575 49.6753 120.515 49.6719C122.818 49.6652 125.121 49.6663 127.423 49.6753C127.462 49.6753 127.482 49.6985 127.482 49.7448L127.483 53.177C127.483 53.2227 127.463 53.2455 127.425 53.2455C124.79 53.2492 122.157 53.2492 119.526 53.2455C118.729 53.2443 117.976 52.5007 117.601 51.6942C117.16 50.7465 117.098 49.9624 117.098 48.7645C117.098 45.5671 117.098 42.3708 117.098 39.1757C117.098 39.1611 117.103 39.1471 117.112 39.1368C117.121 39.1265 117.132 39.1207 117.145 39.1207L119.478 39.1252C119.49 39.1252 119.502 39.1308 119.51 39.1407C119.519 39.1505 119.523 39.164 119.523 39.1779C119.523 41.813 119.522 44.4504 119.522 47.0899Z" fill="url(#paint16_linear_25_544)"/>
<path d="M83.9676 44.8152H81.637C81.6068 44.8152 81.5823 44.8444 81.5823 44.8803V48.797C81.5823 48.833 81.6068 48.8621 81.637 48.8621H83.9676C83.9978 48.8621 84.0223 48.833 84.0223 48.797V44.8803C84.0223 44.8444 83.9978 44.8152 83.9676 44.8152Z" fill="url(#paint17_linear_25_544)"/>
<path d="M110.202 47.8156C110.207 47.7349 110.243 47.6945 110.312 47.6945L112.529 47.6877C112.569 47.6877 112.589 47.7113 112.589 47.7584C112.595 49.4263 112.335 52.3717 110.863 53.0705C110.649 53.1722 110.321 53.2241 109.879 53.2264C107.047 53.2443 105.171 53.2432 104.251 53.223C103.952 53.2163 103.649 53.0794 103.344 52.8125C102.217 51.8277 101.976 49.2468 102.009 47.718C102.01 47.7105 102.012 47.7034 102.017 47.6981C102.022 47.6929 102.028 47.69 102.034 47.69L104.323 47.6911C104.354 47.6911 104.372 47.7094 104.376 47.7461C104.462 48.5144 104.603 49.3904 105.376 49.5642C105.427 49.5755 105.635 49.5822 106.002 49.5844C106.99 49.5889 107.978 49.59 108.966 49.5878C109.793 49.5855 110.146 48.7174 110.202 47.8156Z" fill="url(#paint18_linear_25_544)"/>
<defs>
<linearGradient id="paint0_linear_25_544" x1="31.2832" y1="0.586182" x2="31.2832" y2="18.4549" gradientUnits="userSpaceOnUse">
<stop stop-color="#FBF6AC"/>
<stop offset="1" stop-color="#A3A073"/>
</linearGradient>
<linearGradient id="paint1_linear_25_544" x1="62.3643" y1="4.27264" x2="62.3643" y2="32.4672" gradientUnits="userSpaceOnUse">
<stop stop-color="#FBF6AC"/>
<stop offset="1" stop-color="#A3A073"/>
</linearGradient>
<linearGradient id="paint2_linear_25_544" x1="75.7273" y1="4.27264" x2="75.7273" y2="32.4672" gradientUnits="userSpaceOnUse">
<stop stop-color="#FBF6AC"/>
<stop offset="1" stop-color="#A3A073"/>
</linearGradient>
<linearGradient id="paint3_linear_25_544" x1="86.3342" y1="4.26703" x2="86.3342" y2="32.4672" gradientUnits="userSpaceOnUse">
<stop stop-color="#FBF6AC"/>
<stop offset="1" stop-color="#A3A073"/>
</linearGradient>
<linearGradient id="paint4_linear_25_544" x1="51.5" y1="4.15515" x2="51.5" y2="70.7758" gradientUnits="userSpaceOnUse">
<stop stop-color="#FBF6AC"/>
<stop offset="1" stop-color="#A3A073"/>
</linearGradient>
<linearGradient id="paint5_linear_25_544" x1="110.009" y1="4.26929" x2="110.009" y2="32.4649" gradientUnits="userSpaceOnUse">
<stop stop-color="#FBF6AC"/>
<stop offset="1" stop-color="#A3A073"/>
</linearGradient>
<linearGradient id="paint6_linear_25_544" x1="120.569" y1="4.27264" x2="120.569" y2="32.4672" gradientUnits="userSpaceOnUse">
<stop stop-color="#FBF6AC"/>
<stop offset="1" stop-color="#A3A073"/>
</linearGradient>
<linearGradient id="paint7_linear_25_544" x1="131.139" y1="4.27264" x2="131.139" y2="32.4649" gradientUnits="userSpaceOnUse">
<stop stop-color="#FBF6AC"/>
<stop offset="1" stop-color="#A3A073"/>
</linearGradient>
<linearGradient id="paint8_linear_25_544" x1="146.091" y1="4.27264" x2="146.091" y2="32.4672" gradientUnits="userSpaceOnUse">
<stop stop-color="#FBF6AC"/>
<stop offset="1" stop-color="#A3A073"/>
</linearGradient>
<linearGradient id="paint9_linear_25_544" x1="156.697" y1="4.27155" x2="156.697" y2="32.4672" gradientUnits="userSpaceOnUse">
<stop stop-color="#FBF6AC"/>
<stop offset="1" stop-color="#A3A073"/>
</linearGradient>
<linearGradient id="paint10_linear_25_544" x1="21.8866" y1="11.6687" x2="21.8866" y2="56.9538" gradientUnits="userSpaceOnUse">
<stop stop-color="#FBF6AC"/>
<stop offset="1" stop-color="#A3A073"/>
</linearGradient>
<linearGradient id="paint11_linear_25_544" x1="78.8172" y1="39.0568" x2="78.8172" y2="53.2289" gradientUnits="userSpaceOnUse">
<stop stop-color="#FBF6AC"/>
<stop offset="1" stop-color="#A3A073"/>
</linearGradient>
<linearGradient id="paint12_linear_25_544" x1="93.2891" y1="39.0568" x2="93.2891" y2="53.232" gradientUnits="userSpaceOnUse">
<stop stop-color="#FBF6AC"/>
<stop offset="1" stop-color="#A3A073"/>
</linearGradient>
<linearGradient id="paint13_linear_25_544" x1="107.298" y1="39.0565" x2="107.298" y2="44.6122" gradientUnits="userSpaceOnUse">
<stop stop-color="#FBF6AC"/>
<stop offset="1" stop-color="#A3A073"/>
</linearGradient>
<linearGradient id="paint14_linear_25_544" x1="126.294" y1="39.0557" x2="126.294" y2="47.8291" gradientUnits="userSpaceOnUse">
<stop stop-color="#FBF6AC"/>
<stop offset="1" stop-color="#A3A073"/>
</linearGradient>
<linearGradient id="paint15_linear_25_544" x1="136.713" y1="39.0558" x2="136.713" y2="53.2297" gradientUnits="userSpaceOnUse">
<stop stop-color="#FBF6AC"/>
<stop offset="1" stop-color="#A3A073"/>
</linearGradient>
<linearGradient id="paint16_linear_25_544" x1="122.291" y1="39.1207" x2="122.291" y2="53.2483" gradientUnits="userSpaceOnUse">
<stop stop-color="#FBF6AC"/>
<stop offset="1" stop-color="#A3A073"/>
</linearGradient>
<linearGradient id="paint17_linear_25_544" x1="82.8023" y1="44.8152" x2="82.8023" y2="48.8621" gradientUnits="userSpaceOnUse">
<stop stop-color="#FBF6AC"/>
<stop offset="1" stop-color="#A3A073"/>
</linearGradient>
<linearGradient id="paint18_linear_25_544" x1="107.298" y1="47.6877" x2="107.298" y2="53.239" gradientUnits="userSpaceOnUse">
<stop stop-color="#FBF6AC"/>
<stop offset="1" stop-color="#A3A073"/>
</linearGradient>
</defs>
</svg>
