<svg width="132" height="133" viewBox="0 0 132 133" fill="none" xmlns="http://www.w3.org/2000/svg">
<g clip-path="url(#clip0_102_632)">
<path d="M66.0009 133C48.552 133 32.1508 126.08 19.8044 113.509C13.7127 107.337 8.88618 100.006 5.60234 91.9389C2.31849 83.8713 0.642168 75.2259 0.669769 66.5C0.669769 48.739 7.45802 32.039 19.8044 19.491C32.1508 6.94294 48.552 0 66.0009 0C83.4499 0 99.8511 6.91988 112.197 19.491C118.289 25.663 123.116 32.9936 126.4 41.0611C129.683 49.1287 131.36 57.7741 131.332 66.5C131.332 84.261 124.544 100.961 112.197 113.509C106.166 119.708 98.9736 124.626 91.0407 127.973C83.1079 131.32 74.5948 133.029 66.0009 133ZM66.0009 3.6906C31.9914 3.6906 4.31447 31.8776 4.31447 66.5C4.31447 101.122 31.9914 129.309 66.0009 129.309C100.011 129.309 127.687 101.122 127.687 66.5C127.687 31.8776 100.033 3.6906 66.0009 3.6906Z" fill="#A8A16D"/>
<path d="M70.8078 33.1V34.484C70.7981 35.8597 71.3273 37.1833 72.2794 38.1647C73.2315 39.1462 74.529 39.7054 75.8876 39.72H80.6029C78.3022 45.6481 72.6529 49.7077 66.5481 49.8461V28.925H76.2065L75.9332 28.4868C74.817 26.6645 72.7668 24.7501 69.6233 22.6741C69.271 22.4425 68.8587 22.3221 68.4388 22.3281H36.9805V22.628C36.9805 26.111 40.853 28.9481 45.6366 28.9481H60.4888V48.6698C54.7939 46.2478 50.9898 40.5274 50.8303 34.0919V33.8151H45.1127V34.1149C45.2949 43.7566 51.6276 52.3373 60.4888 54.9899V66.523H61.7872C64.4296 66.523 66.5936 63.1554 66.5936 59.0034V55.8203C72.1746 55.7511 77.4138 53.3983 81.3547 49.2233C85.3165 45.0268 87.5136 39.4361 87.4823 33.6306V33.1H70.8078Z" fill="#A8A16D"/>
<path d="M84.4069 22.3281C80.58 15.6389 73.6095 11.4869 66.2062 11.4869C63.4773 11.4878 60.7757 12.0367 58.2576 13.1018C55.7395 14.1668 53.4551 15.7269 51.5363 17.6918L51.0352 18.1992H61.582L61.6503 18.1762C63.1226 17.6975 64.66 17.4562 66.2062 17.4611C68.3451 17.4732 70.4578 17.9393 72.4078 18.8292C74.3578 19.7192 76.1019 21.0133 77.5275 22.6279L77.6642 22.7894C79.0649 24.5639 80.1375 26.5799 80.8305 28.7405L80.8989 28.9481H89.5095C92.5847 28.9481 95.0676 26.5953 95.0676 23.7121V22.3281H84.4069Z" fill="#A8A16D"/>
<path d="M18.119 75.6111H9.62231L9.82733 73.489H18.324L18.119 75.6111ZM17.6634 79.9706H10.579L10.8296 77.8485H17.8912L17.6634 79.9706ZM17.2306 84.3071H11.5586L11.7636 82.185H17.4356L17.2306 84.3071ZM16.775 88.6205H12.5609L12.7659 86.4984H16.98L16.775 88.6205ZM16.3194 92.9569H13.5176L13.7682 90.8348H16.5472L16.3194 92.9569ZM32.675 77.8485H28.4836L26.684 95.1482H22.356L24.1555 77.8485H19.873L20.3286 73.5121H33.1306L32.675 77.8485Z" fill="#A8A16D"/>
<path d="M44.9305 95.1253H40.648L40.9441 92.3112L38.7345 86.4293H37.3222L36.411 95.1022H32.1057L34.3609 73.4661H47.1629L45.7961 86.4293H43.7915L45.3177 91.1117L44.9305 95.1253ZM41.992 82.1159L42.402 77.8256H38.2106L37.755 82.1159H41.992Z" fill="#A8A16D"/>
<path d="M51.0354 95.1252H46.7756L49.0308 73.489H53.2905L51.0354 95.1252Z" fill="#A8A16D"/>
<path d="M65.7051 95.1252H52.9031L55.1582 73.489H59.418L57.6184 90.7887H66.2062L65.7051 95.1252Z" fill="#A8A16D"/>
<path d="M79.4412 95.1252H66.6392L68.8943 73.489H73.1541L71.3545 90.7887H79.9423L79.4412 95.1252Z" fill="#A8A16D"/>
<path d="M84.6577 95.1252H80.3979L82.6531 73.489H86.9128L84.6577 95.1252Z" fill="#A8A16D"/>
<path d="M99.3274 95.1252H86.5254L88.7805 73.489H101.583L99.3274 95.1252ZM95.5005 90.7887L96.8217 77.8255H92.653L91.3091 90.7887H95.5005Z" fill="#A8A16D"/>
<path d="M113.997 95.1252H109.783L111.583 77.8255H107.323L105.524 95.1252H101.218L103.473 73.489H116.275L113.997 95.1252Z" fill="#A8A16D"/>
<path d="M120.148 95.1252H115.888L118.143 73.489H122.403L120.148 95.1252Z" fill="#A8A16D"/>
<path d="M31.8937 111.837C34.6409 111.99 36.5004 112.067 37.4723 112.067C37.5731 112.075 37.6743 112.061 37.7691 112.026C37.8639 111.99 37.9499 111.934 38.0214 111.862C38.0928 111.79 38.1479 111.703 38.1829 111.607C38.2179 111.511 38.2319 111.408 38.2241 111.306V109.934H34.7662C33.7137 109.934 32.9499 109.692 32.4745 109.209C31.9992 108.727 31.7608 107.953 31.7593 106.889V106.428C31.7593 105.362 31.9977 104.588 32.4745 104.105C32.9514 103.622 33.7153 103.381 34.7662 103.383H40.0441V105.514H35.3675C34.7601 105.514 34.4564 105.822 34.4564 106.437V106.741C34.4564 107.356 34.7601 107.664 35.3675 107.664H38.0737C39.0563 107.664 39.7776 107.895 40.2378 108.356C40.6933 108.817 40.9211 109.553 40.9211 110.55V111.311C40.9211 112.304 40.6933 113.035 40.2378 113.502C39.7822 113.97 39.0608 114.2 38.0737 114.194C37.5635 114.194 37.0221 114.183 36.4495 114.162L35.0668 114.102C34.0433 114.051 32.9856 113.98 31.8937 113.89V111.837Z" fill="#A7A06D"/>
<path d="M52.1309 114.044H43.7869V103.388H52.1309V105.519H46.4931V107.574H50.9282V109.705H46.4931V111.913H52.1309V114.044Z" fill="#A7A06D"/>
<path d="M54.5205 111.837C57.2677 111.99 59.1272 112.067 60.0991 112.067C60.1999 112.075 60.3011 112.061 60.3959 112.026C60.4906 111.99 60.5767 111.934 60.6481 111.862C60.7196 111.79 60.7747 111.703 60.8097 111.607C60.8447 111.511 60.8587 111.408 60.8508 111.306V109.934H57.3907C56.3383 109.934 55.5744 109.692 55.0991 109.209C54.6237 108.727 54.3853 107.953 54.3838 106.889V106.428C54.3838 105.362 54.6222 104.588 55.0991 104.105C55.5759 103.622 56.3398 103.383 57.3907 103.388H62.6686V105.519H57.9943C57.3869 105.519 57.0831 105.826 57.0831 106.441V106.746C57.0831 107.361 57.3869 107.669 57.9943 107.669H60.7005C61.6831 107.669 62.4044 107.899 62.8645 108.361C63.3201 108.822 63.5479 109.558 63.5479 110.554V111.315C63.5479 112.309 63.3201 113.039 62.8645 113.507C62.409 113.974 61.6876 114.205 60.7005 114.199C60.1902 114.199 59.6489 114.188 59.0763 114.166L57.6936 114.106C56.6701 114.056 55.6124 113.985 54.5205 113.894V111.837Z" fill="#A7A06D"/>
<path d="M67.9922 114.044H65.0605L69.0447 103.388H72.0515L76.0356 114.044H73.1085L72.4251 112.141H68.6665L67.9922 114.044ZM69.3453 110.162H71.7417L70.539 106.585L69.3453 110.162Z" fill="#A7A06D"/>
<path d="M87.3114 108.107L85.2066 111.913H83.1018L80.997 108.107V114.044H78.2908V103.388H81.1473L84.1542 109.02L87.1611 103.388H90.0176V114.044H87.3114V108.107Z" fill="#A7A06D"/>
<path d="M101.669 114.044H93.3252V103.388H101.669V105.519H96.0314V107.574H100.467V109.705H96.0314V111.913H101.669V114.044Z" fill="#A7A06D"/>
</g>
<defs>
<clipPath id="clip0_102_632">
<rect width="130.662" height="133" fill="white" transform="translate(0.670166)"/>
</clipPath>
</defs>
</svg>
